<?xml version="1.0" standalone="no"?>
<!DOCTYPE svg PUBLIC "-//W3C//DTD SVG 1.1//EN" "http://www.w3.org/Graphics/SVG/1.1/DTD/svg11.dtd" >
<svg>
<metadata>
Created by FontForge 20110222 at Tue Apr 15 05:13:11 2014
 By Orthosie Webhosting
Copyright (c) 1991 Adobe Systems Incorporated. All Rights Reserved.Berthold Akzidenz Grotesk is a registered trademark of H. Berthold AG.
</metadata>
<defs>
<font id="BertholdAkzidenzGroteskBEItalic" horiz-adv-x="542" >
  <font-face 
    font-family="BertholdAkzidenzGroteskBEItalic"
    font-weight="500"
    font-style="italic"
    font-stretch="normal"
    units-per-em="1000"
    panose-1="0 0 0 0 0 0 0 0 0 0"
    ascent="800"
    descent="-200"
    x-height="471"
    cap-height="706"
    bbox="-123 -250 1303 952"
    underline-thickness="50"
    underline-position="-75"
    slope="-13"
    unicode-range="U+0020-FB02"
  />
<missing-glyph horiz-adv-x="292" 
 />
    <glyph glyph-name=".notdef" horiz-adv-x="292" 
 />
    <glyph glyph-name=".null" horiz-adv-x="0" 
 />
    <glyph glyph-name="nonmarkingreturn" horiz-adv-x="333" 
 />
    <glyph glyph-name="space" unicode=" " horiz-adv-x="292" 
 />
    <glyph glyph-name="exclam" unicode="!" horiz-adv-x="271" 
d="M238 706h91l-54 -233l-78 -247h-47l37 259zM100 110h100l-26 -110h-99z" />
    <glyph glyph-name="quotedbl" unicode="&#x22;" horiz-adv-x="396" 
d="M391 691l-41 -257h-23l-39 245q0 3 -0.5 7t-1 6.5t-0.5 4.5q0 25 16.5 38.5t38.5 13.5q33 0 46 -27q4 -9 4 -31zM203 691l-41 -257h-23l-39 245q-1 9 -1 18q0 25 16.5 38.5t38.5 13.5q32 0 45 -27q6 -11 4 -31z" />
    <glyph glyph-name="numbersign" unicode="#" horiz-adv-x="667" 
d="M497 229l-33 -229h-79l33 229h-111l-33 -229h-80l34 229h-139v77h149l16 108h-141v77h151l31 214h80l-31 -214h110l32 214h78l-29 -214h137v-77h-148l-16 -108h139v-77h-150zM317 306h112l15 108h-110z" />
    <glyph glyph-name="dollar" unicode="$" horiz-adv-x="667" 
d="M514 797l-18 -81q72 -12 120 -48q29 -22 45.5 -49.5t21 -44.5t7.5 -45l-91 -22q-7 52 -28 82q-30 42 -92 56l-52 -242q63 -26 87.5 -38.5t47.5 -32.5q61 -52 61 -126q0 -99 -80 -161t-210 -58l-22 -94h-68l23 99q-119 21 -168 97q-39 59 -38 147l91 17q-2 -42 7 -75
t21.5 -51.5t34.5 -33t35 -19.5t33 -11l65 281q-95 36 -136.5 79t-41.5 98q0 113 110 168q56 29 150 31l18 77h67zM367 433l47 216q-73 -6 -110 -34q-43 -33 -43 -85q0 -39 36 -63q29 -21 70 -34zM410 318l-61 -261q49 2 85 16t54 31t28.5 39t12.5 34t2 23q0 61 -68 94
q-8 4 -53 24z" />
    <glyph glyph-name="percent" unicode="%" horiz-adv-x="917" 
d="M657 691l43 -22l-362 -698l-44 23zM908 266q-3 -107 -59.5 -190.5t-146.5 -83.5q-64 0 -101 45q-38 44 -38 128q0 108 55.5 196t149.5 88q45 0 75.5 -20.5t43.5 -53t17 -58.5t4 -51zM848 266q0 53 -6 75q-17 62 -74 62q-62 0 -103.5 -77t-41.5 -173q0 -50 19 -80
q23 -36 62 -36q47 0 86 50q27 35 41.5 88.5t16.5 90.5zM435 489q-3 -106 -59.5 -189.5t-145.5 -83.5q-65 0 -101 45q-38 44 -38 127q0 109 55.5 197t148.5 88q45 0 75.5 -20.5t43.5 -53t17 -59t4 -51.5zM375 490q0 52 -6 74q-5 18 -14 31t-17.5 18.5t-19 9t-14.5 4t-8 0.5
q-62 0 -103.5 -77t-41.5 -173q0 -51 19 -80q23 -36 62 -36q48 0 85 50q27 35 41.5 88.5t16.5 90.5z" />
    <glyph glyph-name="ampersand" unicode="&#x26;" horiz-adv-x="625" 
d="M548 277l66 -40q-57 -84 -117 -137q36 -22 89 -38l-17 -74q-73 18 -136 61q-91 -58 -186 -58q-39 0 -71 9t-51.5 21.5t-33.5 31t-21 33t-10.5 32t-4 24.5t-0.5 13q0 67 46.5 127.5t116.5 103.5q-10 66 -10 92q0 92 49 154.5t130 62.5q54 0 96 -31.5t42 -86.5
q0 -64 -60 -121q-36 -34 -155 -101q33 -79 62.5 -122t68.5 -81q56 51 107 125zM293 426q62 31 96 62q57 51 57 89q0 21 -12.5 34t-23.5 16t-21 3q-49 0 -74.5 -46.5t-25.5 -103.5q0 -22 4 -54zM372 106q-86 94 -131 207q-97 -71 -97 -153q0 -47 30 -72.5t73 -25.5
q62 0 125 44z" />
    <glyph glyph-name="quotesingle" unicode="'" horiz-adv-x="208" 
d="M203 691l-41 -257h-23l-39 245q-1 9 -1 18q0 25 16.5 38.5t38.5 13.5q32 0 45 -27q6 -11 4 -31z" />
    <glyph glyph-name="parenleft" unicode="(" horiz-adv-x="375" 
d="M441 803h83q-46 -36 -72.5 -58.5t-65 -62t-68 -87.5t-52.5 -107q-57 -142 -57 -304q0 -116 50 -284h-61q-25 57 -47 156t-22 195q0 86 20 163t50 132.5t74.5 107t82 83.5t85.5 66z" />
    <glyph glyph-name="parenright" unicode=")" horiz-adv-x="375" 
d="M209 803h62q68 -208 68 -353q0 -157 -75 -296q-32 -58 -77.5 -109.5t-78 -78t-85.5 -66.5h-81l27 23q77 65 93 80q117 114 166 295q31 114 31 228q0 118 -50 277z" />
    <glyph glyph-name="asterisk" unicode="*" horiz-adv-x="375" 
d="M288 718l60 -7l-26 -113l113 14v-55l-108 -17l44 -113l-54 -21l-44 103l-91 -82l-38 43l95 87l-102 55l26 52l100 -52z" />
    <glyph glyph-name="plus" unicode="+" horiz-adv-x="667" 
d="M409 251v-251h-80v251h-249v80h249v249h80v-249h251v-80h-251z" />
    <glyph glyph-name="comma" unicode="," horiz-adv-x="229" 
d="M57 110h95q-20 -156 -95 -264h-49q48 81 64 154h-40z" />
    <glyph glyph-name="hyphen" unicode="-" horiz-adv-x="313" 
d="M103 360h204l-17 -73h-204z" />
    <glyph glyph-name="period" unicode="." horiz-adv-x="229" 
d="M57 110h100l-22 -110h-101z" />
    <glyph glyph-name="slash" unicode="/" horiz-adv-x="313" 
d="M307 706h78l-287 -706h-80z" />
    <glyph glyph-name="zero" unicode="0" horiz-adv-x="583" 
d="M594 401q-2 -85 -32 -173q-38 -109 -111 -174.5t-167 -65.5q-93 0 -151 67q-57 70 -57 193q0 75 20 149.5t57 137.5t97.5 102.5t133.5 39.5q54 0 94.5 -21.5t62 -52t34.5 -71t16.5 -71.5t2.5 -60zM508 402q5 58 -9 114q-8 31 -24.5 52.5t-35.5 30t-31.5 11.5t-23.5 3
q-20 0 -42.5 -7t-55.5 -34.5t-59 -72.5q-65 -116 -65 -270q0 -77 29 -122q37 -56 97 -56q73 0 132 78q40 54 62.5 135.5t25.5 137.5z" />
    <glyph glyph-name="one" unicode="1" horiz-adv-x="583" 
d="M393 677h83l-156 -677h-83l120 519q-19 -11 -34 -16q-39 -15 -96 -15q-7 0 -49 3l16 69q13 -2 32 -2q28 0 50.5 4.5t47 16t42 36.5t27.5 62z" />
    <glyph glyph-name="two" unicode="2" horiz-adv-x="583" 
d="M145 69l357 5l-17 -74h-455l20 85q47 24 116 69q103 66 153.5 105.5t92.5 91.5q64 80 64 151q0 55 -33 81t-75 26q-59 0 -99.5 -45.5t-40.5 -116.5q0 -15 4 -43l-91 18q-3 61 12.5 108t40 74t57.5 44t61.5 23t56.5 6q81 0 138.5 -43t57.5 -129q0 -112 -97 -220
q-57 -63 -147 -120.5t-176 -95.5z" />
    <glyph glyph-name="three" unicode="3" horiz-adv-x="583" 
d="M46 200l89 11q6 -80 51 -119q40 -36 104 -36q75 0 113 40.5t38 92.5t-38 84q-20 17 -48 25t-53 10t-81 3l16 68q20 -2 34 -2q12 0 38 2q78 6 115 32q53 37 53 99q0 39 -27 69.5t-85 30.5q-67 0 -103.5 -43.5t-37.5 -106.5l-93 17l11.5 46t16 39.5t29.5 44.5q63 70 178 70
q96 0 147 -49t51 -120q0 -63 -45 -110q-21 -21 -47.5 -33.5t-41.5 -15.5t-41 -6q55 -10 82 -30q60 -42 60 -125q0 -91 -71 -145t-176 -54q-97 0 -158 46q-72 53 -80 165z" />
    <glyph glyph-name="four" unicode="4" horiz-adv-x="583" 
d="M463 254h90l-16 -71h-91l-42 -183h-79l42 183h-308l16 71l397 423h82zM172 254h211l81 326z" />
    <glyph glyph-name="five" unicode="5" horiz-adv-x="583" 
d="M587 665l-17 -71h-307l-56 -209q21 21 35.5 32.5t48 25t73.5 13.5q86 0 138 -55t52 -140q0 -57 -23.5 -111.5t-64.5 -93.5q-72 -68 -183 -68q-101 0 -165 54q-61 52 -71 145l82 13q6 -44 24 -75.5t42 -45.5t44.5 -19.5t40.5 -5.5q77 0 132.5 58.5t55.5 144.5
q0 64 -33.5 97.5t-82.5 33.5q-55 0 -100 -34q-18 -13 -45 -46l-89 14l93 343h376z" />
    <glyph glyph-name="six" unicode="6" horiz-adv-x="583" 
d="M622 517l-86 -17q-8 44 -25 66q-32 41 -92 41q-18 0 -41 -5q-77 -21 -133 -109q-46 -72 -65 -172q15 24 26.5 39t36 39t59 36.5t76.5 12.5q87 0 140.5 -55t53.5 -146q0 -44 -15 -88t-44 -83t-79.5 -63.5t-114.5 -24.5q-109 0 -167 73t-58 196q0 92 34 179t82 140
q90 101 211 101q72 0 128 -40q57 -41 73 -120zM489 245q1 65 -33 99.5t-89 34.5q-78 0 -126.5 -57t-48.5 -127q0 -60 35.5 -100t95.5 -40q74 0 119.5 58t46.5 132z" />
    <glyph glyph-name="seven" unicode="7" horiz-adv-x="583" 
d="M162 665h414q-8 -56 -20.5 -90.5t-40.5 -81.5q-10 -16 -29 -49t-29 -50q-44 -80 -56 -102q-90 -173 -119 -292h-100q16 56 41 116q52 127 121 239q12 19 35 54.5t30 46.5q36 55 46.5 77.5t21.5 62.5h-255l-29 -125h-76z" />
    <glyph glyph-name="eight" unicode="8" horiz-adv-x="583" 
d="M446 351q41 -14 64 -38q42 -43 42 -108q0 -88 -68 -152.5t-194 -64.5q-106 0 -163 50.5t-57 125.5q0 84 63 142q33 30 84 45q-79 41 -79 123q0 79 61 141t174 62q89 0 145 -44t56 -120q0 -75 -54 -123q-26 -23 -74 -39zM490 509q0 47 -33.5 74.5t-88.5 27.5
q-71 0 -108.5 -42t-37.5 -88q0 -40 28.5 -70.5t92.5 -30.5q26 0 58 10q25 9 43.5 24t26.5 29t13 30.5t5.5 23t0.5 12.5zM468 202q-1 50 -38.5 83.5t-95.5 33.5q-72 0 -126 -42t-54 -109q0 -56 41.5 -87.5t99.5 -31.5q70 0 122 44t51 109z" />
    <glyph glyph-name="nine" unicode="9" horiz-adv-x="583" 
d="M42 151l82 10q11 -53 46 -78.5t81 -25.5q29 0 56 9q60 20 106 80q31 42 45 81t29 108q-74 -121 -197 -121q-87 0 -140 55.5t-53 142.5q0 107 69.5 186t188.5 79q99 0 158 -64q62 -69 62 -194q0 -74 -20.5 -147.5t-59 -138t-103.5 -105t-146 -40.5q-76 0 -136 41t-68 122z
M479 482q-2 60 -37 94.5t-90 34.5q-44 0 -78.5 -19.5t-54 -50.5t-29.5 -64t-10 -64q0 -63 34.5 -96.5t86.5 -33.5q69 0 125.5 51.5t52.5 147.5z" />
    <glyph glyph-name="colon" unicode=":" horiz-adv-x="271" 
d="M100 111h99l-26 -111h-98zM182 491h98l-25 -109h-98z" />
    <glyph glyph-name="semicolon" unicode=";" horiz-adv-x="271" 
d="M180 491h100l-25 -109h-101zM100 109h97q-6 -55 -31 -131.5t-63 -132.5h-50q47 89 63 155h-42z" />
    <glyph glyph-name="less" unicode="&#x3c;" horiz-adv-x="667" 
d="M714 83v-86l-667 313v86l667 313v-87l-567 -269z" />
    <glyph glyph-name="equal" unicode="=" horiz-adv-x="667" 
d="M714 239v-78h-667v78h667zM714 420v-78h-667v78h667z" />
    <glyph glyph-name="greater" unicode="&#x3e;" horiz-adv-x="667" 
d="M704 310l-667 -313v86l567 270l-567 269v87l667 -313v-86z" />
    <glyph glyph-name="question" unicode="?" 
d="M269 112h92l-25 -112h-92zM403 325l-34 -149h-78l50 215q78 -1 121 34q44 37 44 98q0 7 -1 15.5t-7.5 29t-18 35t-37 26.5t-60.5 12q-76 0 -114 -48.5t-39 -111.5l-87 14q8 94 70 156t166 62q62 0 105 -20q22 -10 44 -26.5t45 -55.5t23 -87q0 -73 -47.5 -130t-144.5 -69z
" />
    <glyph glyph-name="at" unicode="@" horiz-adv-x="896" 
d="M829 77l33 -41q-49 -46 -88 -72q-131 -88 -279 -88q-53 0 -105.5 12t-103.5 39.5t-89.5 68t-62 102t-23.5 136.5q0 124 58.5 233.5t165.5 177t237 67.5q136 0 216.5 -79t80.5 -209q0 -89 -33 -171.5t-86.5 -132.5t-111.5 -50q-25 0 -42 10q-38 20 -41 75
q-64 -84 -143 -84q-54 0 -92.5 40.5t-38.5 121.5q0 111 63.5 197.5t147.5 86.5q79 0 115 -84l15 62h68l-32 -150q-29 -125 -29 -170t31 -45q46 0 98.5 90.5t52.5 200.5q0 118 -71 177t-174 59q-163 0 -280.5 -126.5t-117.5 -295.5q0 -64 19.5 -116.5t51.5 -86.5t75 -57.5
t88 -33.5t92 -10q185 0 335 146zM583 348q1 50 -24 77.5t-60 27.5q-60 0 -99.5 -69.5t-39.5 -146.5q0 -43 17 -69q23 -33 63 -33q56 0 98.5 65t44.5 148z" />
    <glyph glyph-name="A" unicode="A" horiz-adv-x="667" 
d="M516 0l-25 222h-268l-128 -222h-95l408 707h108l91 -707h-91zM448 649l-183 -354h218z" />
    <glyph glyph-name="B" unicode="B" horiz-adv-x="708" 
d="M220 706h233q95 0 138 -13q56 -17 85.5 -57t29.5 -94q0 -72 -43 -114.5t-106 -55.5q-9 -2 -25 -4q20 -2 32 -5q45 -10 77.5 -49t32.5 -96q0 -74 -50 -133q-25 -29 -54.5 -47.5t-65.5 -26t-59.5 -9t-63.5 -2.5h-324zM221 332l-60 -259h199q103 0 145 19q42 20 59.5 57.5
t17.5 73.5q0 53 -40 83q-33 24 -101 26h-220zM290 634l-52 -227h195q81 0 120 22q62 35 62 108q0 32 -12.5 54t-32.5 30t-33.5 10.5t-28.5 2.5h-218z" />
    <glyph glyph-name="C" unicode="C" horiz-adv-x="771" 
d="M670 245l89 -12q-37 -76 -63 -109q-106 -137 -292 -137q-62 0 -117 17.5t-101 54.5t-72.5 101.5t-26.5 150.5q0 173 104 291t278 118q248 0 307 -215l-89 -17q-15 53 -42 87q-57 74 -176 74q-63 0 -113.5 -23t-82 -58.5t-53 -82t-30 -90.5t-8.5 -86q0 -111 55 -180.5
t170 -69.5q102 0 170 56q62 54 93 130z" />
    <glyph glyph-name="D" unicode="D" horiz-adv-x="729" 
d="M316 0h-258l163 707h210q142 -3 205 -49q96 -70 96 -225q0 -107 -39.5 -201.5t-108.5 -152.5q-42 -36 -92.5 -54t-84 -21t-91.5 -4zM293 634l-130 -562h153q44 0 67.5 2.5t57 11t60.5 28.5t54 53q39 48 61 112.5t25 95.5t3 56q0 56 -15.5 96t-35.5 60t-53 31.5t-54 13.5
t-53 2h-140z" />
    <glyph glyph-name="E" unicode="E" horiz-adv-x="625" 
d="M162 75h420l-17 -75h-509l163 706h460l-18 -75h-370l-54 -233h339l-16 -70h-339z" />
    <glyph glyph-name="F" unicode="F" horiz-adv-x="562" 
d="M238 402h342l-17 -72h-341l-77 -330h-88l163 707h456l-18 -74h-367z" />
    <glyph glyph-name="G" unicode="G" horiz-adv-x="792" 
d="M420 365h345l-84 -365h-80l21 88q-9 -13 -15 -20.5t-21.5 -20t-36.5 -23.5q-71 -37 -157 -37q-142 0 -219.5 89t-77.5 226q0 101 35.5 183t93 132t127.5 76.5t143 26.5q66 0 124 -20t108.5 -70t70.5 -126l-94 -13q-28 83 -85 121q-51 33 -122 33q-116 0 -193 -70
q-115 -104 -115 -272q0 -104 53.5 -174t165.5 -70q120 0 192 78q49 51 70 156h-265z" />
    <glyph glyph-name="H" unicode="H" horiz-adv-x="750" 
d="M308 706l-68 -295h390l68 295h87l-164 -706h-86l78 337h-390l-78 -337h-87l163 706h87z" />
    <glyph glyph-name="I" unicode="I" horiz-adv-x="271" 
d="M220 706h86l-163 -706h-86z" />
    <glyph glyph-name="J" unicode="J" horiz-adv-x="437" 
d="M17 7l19 84q47 -24 101 -24q67 0 97 44t50 139l105 456h87l-111 -484q-11 -47 -18.5 -73.5t-25 -62t-39.5 -54t-59 -32t-87 -13.5q-66 0 -119 20z" />
    <glyph glyph-name="K" unicode="K" horiz-adv-x="646" 
d="M766 706l-335 -267l194 -439h-96l-168 384l-158 -125l-60 -259h-85l163 706h85l-77 -332l419 332h118z" />
    <glyph glyph-name="L" unicode="L" 
d="M308 706l-145 -630h335l-18 -76h-423l163 706h88z" />
    <glyph glyph-name="M" unicode="M" horiz-adv-x="833" 
d="M763 707h105l-163 -707h-84l153 601l-343 -601h-95l-67 611l-127 -611h-84l163 707h104l73 -633z" />
    <glyph glyph-name="N" unicode="N" horiz-adv-x="729" 
d="M315 706l231 -611l133 611h84l-163 -706h-91l-234 613l-133 -613h-85l163 706h95z" />
    <glyph glyph-name="O" unicode="O" horiz-adv-x="792" 
d="M793 393q-1 -79 -28 -151.5t-75 -129.5t-122 -91t-162 -34q-148 0 -229.5 93t-81.5 228q0 76 23.5 147.5t68.5 131.5t120 96.5t170 36.5q80 0 144.5 -28.5t103.5 -78.5q70 -88 68 -220zM700 400q1 117 -60 183.5t-164 66.5q-70 0 -126 -30.5t-90 -80.5t-51.5 -109
t-17.5 -121q0 -115 62.5 -183t159.5 -68q123 0 204.5 97t82.5 245z" />
    <glyph glyph-name="P" unicode="P" horiz-adv-x="646" 
d="M213 301l-69 -301h-89l163 706h285q70 0 121 -29q80 -46 80 -151q0 -130 -117 -190q-43 -22 -79 -28.5t-101 -6.5h-194zM289 631l-59 -256h157q78 0 111 8q59 14 89 54t30 88q0 102 -120 106h-208z" />
    <glyph glyph-name="Q" unicode="Q" horiz-adv-x="792" 
d="M656 102l89 -72l-62 -61l-95 76q-92 -58 -198 -58q-132 0 -218.5 88.5t-86.5 234.5q0 78 25.5 151t72 131t118.5 93t158 35q136 0 222.5 -86.5t86.5 -234.5q0 -181 -112 -297zM675 399q0 119 -59 185.5t-155 66.5t-168 -63q-57 -50 -85 -129t-28 -155q0 -114 58 -179
q28 -31 69 -49.5t85 -18.5q54 0 110 27t96 77q77 94 77 238z" />
    <glyph glyph-name="R" unicode="R" horiz-adv-x="667" 
d="M215 307l-71 -307h-87l163 707h285q39 0 67 -5q57 -12 95.5 -56.5t38.5 -117.5q0 -66 -33 -116q-49 -74 -162 -93l122 -319h-96l-115 307h-207zM290 632l-58 -251h167q74 2 100 7q36 8 61 25t36.5 38.5t16 39.5t4.5 36q0 47 -29.5 76t-87.5 29h-210z" />
    <glyph glyph-name="S" unicode="S" horiz-adv-x="667" 
d="M61 228l94 18q-2 -38 4 -64q16 -71 68 -100t115 -29q55 0 95 15.5t59.5 39.5t28 46t8.5 42q0 46 -34 74q-18 16 -77 40l-86 34q-82 33 -124.5 71.5t-42.5 108.5q0 58 35 105t100 70q58 21 131 21q83 0 145 -28q101 -47 111 -162l-87 -21q-5 24 -9.5 39.5t-18.5 38
t-36 36.5q-42 29 -109 29q-76 0 -122.5 -34.5t-46.5 -85.5q0 -21 7 -36t27.5 -29t36.5 -21.5t54 -23.5l107 -43q130 -53 130 -170q0 -121 -109 -183q-68 -39 -173 -39q-103 0 -173 38q-14 7 -23.5 13t-27 23.5t-28.5 37t-20 54t-9 75.5z" />
    <glyph glyph-name="T" unicode="T" 
d="M660 706l-17 -76h-215l-146 -630h-89l150 630h-218l18 76h517z" />
    <glyph glyph-name="U" unicode="U" horiz-adv-x="708" 
d="M665 707h88l-98 -424q-10 -50 -22 -87t-35.5 -79t-55 -68.5t-82 -44t-115.5 -17.5q-40 0 -77.5 9t-75.5 30t-61.5 64t-23.5 103q0 48 22 158l82 356h88l-84 -365q-19 -89 -19 -130q0 -49 13 -76q36 -74 141 -74q47 0 82.5 14.5t57 34.5t39.5 58t26.5 68.5t20.5 81.5z" />
    <glyph glyph-name="V" unicode="V" horiz-adv-x="583" 
d="M598 706h94l-389 -706h-93l-68 706h89l46 -603z" />
    <glyph glyph-name="W" unicode="W" horiz-adv-x="1000" 
d="M1019 706h92l-375 -706h-81l-53 613l-312 -613h-89l-73 706h85l57 -594l306 594h85l56 -594z" />
    <glyph glyph-name="X" unicode="X" horiz-adv-x="583" 
d="M581 706h104l-296 -349l149 -357h-93l-120 294l-241 -294h-103l314 369l-138 337h91l109 -273z" />
    <glyph glyph-name="Y" unicode="Y" horiz-adv-x="583" 
d="M601 706h106l-358 -399l-71 -307h-89l73 317l-121 389h89l95 -319z" />
    <glyph glyph-name="Z" unicode="Z" horiz-adv-x="583" 
d="M627 626l-511 -549h450l-18 -77h-549l21 89l502 537h-383l18 80h489z" />
    <glyph glyph-name="bracketleft" unicode="[" horiz-adv-x="292" 
d="M230 780h178l-11 -54h-96l-158 -749h95l-12 -53h-178z" />
    <glyph glyph-name="backslash" unicode="\" horiz-adv-x="375" 
d="M129 706h78l134 -706h-80z" />
    <glyph glyph-name="bracketright" unicode="]" horiz-adv-x="292" 
d="M163 780h176l-183 -857h-179l13 54h94l161 748h-95z" />
    <glyph glyph-name="asciicircum" unicode="^" horiz-adv-x="667" 
d="M424 706l180 -369h-97l-124 259l-128 -259h-96l188 369h77z" />
    <glyph glyph-name="underscore" unicode="_" horiz-adv-x="500" 
d="M557 -75v-50h-520v50h520z" />
    <glyph glyph-name="grave" unicode="`" horiz-adv-x="292" 
d="M72 683h101l46 -152h-53z" />
    <glyph glyph-name="a" unicode="a" horiz-adv-x="500" 
d="M461 301l-43 -185q-4 -20 -4 -29q0 -25 24 -25q16 0 32 7l-15 -65q-28 -7 -47 -7q-36 0 -52.5 18t-16.5 40q0 3 0.5 7t0.5 7q-27 -42 -68 -60q-43 -19 -96 -19q-71 0 -105.5 35t-34.5 82q0 54 35 94q24 29 59 43t93 23q9 2 76 11.5t81 12.5q10 47 10 62q0 68 -93 68
q-33 0 -56 -9.5t-34.5 -26.5t-16 -29.5t-7.5 -30.5l-89 8q11 29 21.5 48.5t33.5 45.5t62.5 39.5t93.5 13.5q71 0 117 -30q48 -31 48 -85q0 -24 -9 -64zM353 174l13 57q-85 -11 -118.5 -17.5t-64.5 -20.5q-60 -26 -60 -79q0 -31 23 -48t57 -17q22 0 52.5 9.5t50.5 26.5
q33 28 47 89z" />
    <glyph glyph-name="b" unicode="b" horiz-adv-x="562" 
d="M208 707h76l-70 -305q24 35 58 54q45 24 96 24q82 0 128.5 -55.5t46.5 -140.5q0 -19 -3.5 -43t-12.5 -59t-28 -67t-45.5 -61t-70 -46t-97.5 -17q-41 0 -69 9t-43 26t-21 29.5t-12 31.5l-20 -87h-76zM463 282q1 69 -33 101.5t-84 32.5q-42 0 -79.5 -23t-60.5 -67
q-15 -28 -25.5 -72t-10.5 -78q0 -69 35 -97.5t78 -28.5q62 0 108 44q33 31 52 85t20 103z" />
    <glyph glyph-name="c" unicode="c" horiz-adv-x="500" 
d="M406 154l83 -11q-35 -84 -108 -127q-49 -27 -120 -27q-77 0 -125 35q-74 52 -74 163q0 120 72.5 208t190.5 88q84 0 131.5 -41t52.5 -101l-74 -18q-4 17 -9 29t-16.5 29.5t-34 27.5t-53.5 10q-80 0 -129.5 -71t-49.5 -156q0 -60 31.5 -102.5t92.5 -42.5q41 0 76 23
q41 27 63 84z" />
    <glyph glyph-name="d" unicode="d" horiz-adv-x="562" 
d="M539 707h78l-164 -707h-77l15 64q-57 -73 -148 -73q-45 0 -78.5 14.5t-52.5 35.5t-30.5 50t-15 52.5t-3.5 47.5q0 70 27 134t87.5 109.5t142.5 45.5q70 0 108 -33q29 -26 36 -67zM436 293q1 18 -2.5 35t-13 39.5t-34 36.5t-61.5 14q-59 0 -101.5 -38t-60.5 -87.5
t-18 -99.5q0 -69 32.5 -105t85.5 -36q46 0 81.5 26t54 65.5t28 78t9.5 71.5z" />
    <glyph glyph-name="e" unicode="e" horiz-adv-x="521" 
d="M407 146l74 -13q-17 -43 -45.5 -73t-61 -44.5t-61.5 -20.5t-58 -6q-88 0 -140.5 53.5t-52.5 146.5q0 116 70.5 205t190.5 89q89 0 133 -52.5t44 -140.5q0 -26 -6 -62h-353q-2 -26 -2 -35q0 -42 14.5 -72.5t37 -44.5t42.5 -20t39 -6q28 0 51 10q25 9 43.5 26.5t25 29
t15.5 30.5zM156 285h266q1 8 1 21q0 55 -31.5 86t-73.5 31q-16 0 -35.5 -5.5t-44 -19t-47 -43t-35.5 -70.5z" />
    <glyph glyph-name="f" unicode="f" horiz-adv-x="271" 
d="M310 411h-85l-94 -411h-77l95 411h-75l14 60h75l28 124q10 44 21 64q30 57 95 57q27 0 59 -11l-14 -60q-28 4 -37 4q-17 0 -27 -9q-14 -12 -24 -62l-25 -107h84z" />
    <glyph glyph-name="g" unicode="g" 
d="M16 -43l80 9q-6 -21 -6 -37q0 -35 30 -62t83 -27q27 0 48.5 6t37 21.5t26.5 30t21.5 43.5t16 48.5t15.5 58.5q-61 -57 -137 -57q-86 0 -127.5 60t-41.5 134q0 30 7 65.5t25 77t45 74.5t72 55.5t101 22.5q50 0 81 -19.5t57 -58.5l15 69h76l-102 -445
q-28 -127 -81.5 -186.5t-157.5 -59.5q-89 0 -138 41.5t-49 103.5q0 11 3 32zM419 298q0 58 -24 87q-25 33 -77 33q-90 0 -140 -89q-35 -65 -35 -143q0 -67 31 -101t80 -34q74 0 121 79q20 34 31.5 83.5t12.5 84.5z" />
    <glyph glyph-name="h" unicode="h" 
d="M286 707l-73 -316l10 15q57 77 157 77q61 0 97 -29.5t36 -81.5q0 -26 -11 -77l-68 -295h-79l70 304q7 31 7 46q0 33 -21.5 51t-55.5 18q-69 0 -116 -52q-19 -21 -32 -47t-18 -43.5t-14 -52.5l-52 -224h-78l163 707h78z" />
    <glyph glyph-name="i" unicode="i" horiz-adv-x="229" 
d="M150 471h79l-108 -471h-80zM285 706l-21 -90h-82l21 90h82z" />
    <glyph glyph-name="j" unicode="j" horiz-adv-x="229" 
d="M286 706l-21 -89h-79l20 89h80zM-97 -224l15 64q26 -2 32 -2q34 0 49 15q12 12 26 70l131 548h76l-127 -546q-22 -86 -32 -102q-4 -6 -9 -12q-33 -39 -107 -39q-24 0 -54 4z" />
    <glyph glyph-name="k" unicode="k" horiz-adv-x="479" 
d="M431 471h105l-242 -190l180 -281h-96l-145 231l-74 -57l-40 -174h-78l163 706h78l-100 -431z" />
    <glyph glyph-name="l" unicode="l" horiz-adv-x="229" 
d="M204 706h78l-163 -706h-78z" />
    <glyph glyph-name="m" unicode="m" horiz-adv-x="792" 
d="M152 471h77l-18 -76q13 18 22 28.5t28.5 26.5t46 24.5t58.5 8.5q43 0 74 -22t38 -66q25 32 43 46q54 42 122 42q21 0 45 -8q74 -23 74 -104q0 -21 -15 -96l-63 -275h-77l63 276q14 61 14 80q0 31 -20 48t-53 17q-37 0 -67.5 -18.5t-47.5 -45.5q-17 -26 -33 -88l-62 -269
h-77l55 240q22 94 22 113q0 68 -71 68q-48 0 -86 -38q-25 -23 -40 -53t-28 -87l-56 -243h-77z" />
    <glyph glyph-name="n" unicode="n" 
d="M150 471h79l-16 -68q76 80 161 80q54 0 95 -31.5t41 -88.5q0 -21 -11 -79l-66 -284h-78l67 290q7 29 7 55q0 31 -19 53t-62 22q-56 0 -97 -32q-29 -24 -45 -57.5t-32 -98.5l-54 -232h-79z" />
    <glyph glyph-name="o" unicode="o" 
d="M521 282q3 -116 -69.5 -204.5t-190.5 -88.5q-88 0 -143.5 55.5t-55.5 150.5q0 124 76 206t187 82q79 0 136 -50.5t60 -150.5zM442 291q-1 63 -33.5 97t-82.5 34q-80 0 -132 -69t-52 -163q0 -61 25 -96q33 -46 92 -46q11 0 24.5 2.5t37 11t47 31t41.5 55.5q35 65 33 143z
" />
    <glyph glyph-name="p" unicode="p" 
d="M230 471l-14 -59q55 68 140 68q70 0 120 -46t50 -141q0 -121 -68 -211.5t-179 -90.5q-92 0 -129 67q-2 4 -10 22l-68 -295h-78l159 686h77zM448 293q-1 41 -14.5 68.5t-35 38t-35 14t-25.5 3.5q-87 0 -132 -87q-15 -30 -27 -77t-12 -86q0 -38 14 -63.5t36 -34.5
t34.5 -11.5t23.5 -2.5q78 0 126.5 73t46.5 165z" />
    <glyph glyph-name="q" unicode="q" 
d="M305 -215l65 281q-1 -2 -5 -8l-6 -9q-46 -58 -129 -58q-72 0 -119.5 51t-47.5 145q0 124 71 208.5t177 84.5q39 0 66 -9.5t40.5 -27t18.5 -27.5t9 -26l19 81h77l-159 -686h-77zM421 322q-2 47 -32 72t-71 25q-76 0 -124.5 -68t-48.5 -165q0 -60 27 -94q29 -37 78 -37
q75 0 121 72q25 39 38 99t12 96z" />
    <glyph glyph-name="r" unicode="r" horiz-adv-x="313" 
d="M366 479l-17 -74q-55 2 -87 -17q-62 -37 -93 -166l-51 -222h-76l108 471h77l-19 -83q8 13 11.5 19t12.5 16t23 21q41 36 92 36q12 0 19 -1z" />
    <glyph glyph-name="s" unicode="s" horiz-adv-x="479" 
d="M49 162l80 13q-6 -26 -6 -41q0 -87 112 -87q59 0 89 25t30 57q0 25 -16.5 40t-55.5 29l-82 32q-46 19 -71.5 45t-25.5 67q0 55 47.5 97.5t140.5 42.5q75 0 121 -31t46 -93q0 -3 -0.5 -8.5t-0.5 -9.5l-76 -13q3 23 3 27q0 27 -24.5 48.5t-67.5 21.5q-50 0 -78 -21.5
t-28 -49.5q0 -17 11 -29.5t22.5 -18.5t37.5 -16l77 -30q27 -12 41 -19t31 -20.5t24.5 -32t7.5 -43.5q0 -54 -38 -97q-53 -59 -169 -59q-82 0 -133.5 34.5t-51.5 107.5q0 5 3 32z" />
    <glyph glyph-name="t" unicode="t" horiz-adv-x="271" 
d="M272 619l-34 -148h83l-14 -61h-83l-60 -258q-11 -44 -11 -61q0 -29 35 -29q7 0 54 8l-14 -59q-32 -14 -75 -14q-78 0 -78 66q0 27 11 73l63 274h-75l14 61h75l34 148h75z" />
    <glyph glyph-name="u" unicode="u" 
d="M468 471h75l-108 -471h-76l17 74q-29 -35 -59 -53q-53 -30 -113 -30q-58 0 -94 30t-36 80q0 20 15 89l64 281h79l-64 -280q-11 -56 -11 -70q0 -18 7 -32q20 -34 76 -34q49 0 90 26q28 17 46.5 49.5t25 55t18.5 77.5z" />
    <glyph glyph-name="v" unicode="v" horiz-adv-x="458" 
d="M430 471h86l-291 -471h-82l-47 471h74l32 -389z" />
    <glyph glyph-name="w" unicode="w" horiz-adv-x="750" 
d="M723 471h83l-273 -471h-77l-32 384l-205 -384h-76l-47 471h76l31 -385l201 385h77l34 -385z" />
    <glyph glyph-name="x" unicode="x" horiz-adv-x="437" 
d="M412 471h91l-218 -237l69 -234h-77l-46 179l-160 -179h-94l227 245l-67 226h76l46 -171z" />
    <glyph glyph-name="y" unicode="y" horiz-adv-x="458" 
d="M422 471h87l-356 -601q-21 -32 -31 -46t-28 -29.5t-39.5 -20.5t-54.5 -5q-26 0 -54 4l16 68q17 -3 37 -3q27 0 49 13q15 8 42 51l62 106l-52 463h77l37 -376z" />
    <glyph glyph-name="z" unicode="z" horiz-adv-x="458" 
d="M479 471l-17 -74l-345 -329h299l-16 -68h-401l15 63l356 340h-266l15 68h360z" />
    <glyph glyph-name="braceleft" unicode="{" horiz-adv-x="354" 
d="M109 333v40q16 5 23.5 8t17.5 13t18 27q12 27 12 113v60q1 71 7.5 105t29.5 59q25 27 52 34.5t91 10.5v-40q-16 -4 -22 -6t-20 -8t-24 -15.5t-17 -22.5q-16 -27 -17 -116v-15q0 -60 -1 -91q-2 -69 -22.5 -96t-63.5 -41q45 -17 65 -44t22 -89q1 -28 1 -84v-29
q1 -81 17.5 -114.5t81.5 -51.5v-40q-54 2 -86 10t-55 31q-18 19 -27.5 49.5t-10.5 51t0 53.5v65q0 90 -11 117q-7 18 -18.5 30t-19.5 16t-23 10z" />
    <glyph glyph-name="bar" unicode="|" horiz-adv-x="229" 
d="M197 750v-1000h-80v1000h80z" />
    <glyph glyph-name="braceright" unicode="}" horiz-adv-x="354" 
d="M340 371v-40q-16 -5 -23.5 -8t-17.5 -13t-18 -27q-12 -27 -12 -113v-60q-1 -71 -7.5 -105t-29.5 -59q-25 -27 -52 -34.5t-91 -10.5v40q16 4 22 6t20 8t24 15.5t17 22.5q16 27 17 116v15q0 60 1 91q2 69 22.5 96t63.5 41q-45 17 -65 44t-22 89q-1 28 -1 84v29
q-1 81 -17.5 114.5t-81.5 51.5v40q54 -2 86 -10t55 -31q18 -19 27.5 -49.5t10.5 -51t0 -53.5v-65q0 -90 11 -117q7 -18 18.5 -30t19.5 -16t23 -10z" />
    <glyph glyph-name="asciitilde" unicode="~" horiz-adv-x="667" 
d="M564 366l38 -71q-68 -80 -137 -80q-30 0 -99 31l-30 15q-50 24 -80 24q-27 0 -44 -13t-51 -54l-40 71q56 84 133 84q41 0 111 -33l33 -15q46 -21 70 -21q43 0 96 62z" />
    <glyph glyph-name="exclamdown" unicode="&#xa1;" horiz-adv-x="271" 
d="M167 480l46 -1l-38 -259l-51 -220h-89l56 232zM191 706h99l-26 -111h-99z" />
    <glyph glyph-name="cent" unicode="&#xa2;" horiz-adv-x="500" 
d="M275 -9l-21 -92h-65l22 95q-45 9 -76 33.5t-44 57t-17.5 56.5t-4.5 47q0 112 69.5 200.5t184.5 91.5l19 81h60l-19 -81q52 -7 89.5 -44t44.5 -96l-74 -18q-18 81 -75 90l-78 -362q35 0 62 19q40 28 61 85l84 -10q-26 -72 -85 -114q-55 -39 -137 -39zM226 57l82 359
q-60 -6 -102 -56q-55 -72 -55 -174q0 -100 75 -129z" />
    <glyph glyph-name="sterling" unicode="&#xa3;" horiz-adv-x="688" 
d="M142 355h160q2 8 9 54t8 53q13 81 37 127q19 36 49 62t63.5 38.5t63 18t56.5 5.5q75 0 126 -32q23 -15 38.5 -33t22 -38.5t8.5 -32.5t4 -32l-88 -17q2 14 2 24q0 37 -36 65.5t-88 28.5q-51 0 -91 -27q-36 -24 -53.5 -62.5t-29.5 -100.5l-18 -101h175l-15 -64h-175
q-13 -78 -61 -169q95 -54 152 -54q39 0 63 25t32 67l85 -9q-6 -24 -17 -47.5t-31 -50t-54.5 -42.5t-77.5 -16q-25 0 -53.5 7t-52.5 16.5t-43.5 19.5t-31.5 17l-13 7q-66 -68 -151 -68q-11 0 -25.5 2.5t-37 10t-37 27t-14.5 47.5q0 44 40.5 69.5t93.5 25.5q25 0 43 -4.5
t66 -20.5q21 39 42 140h-160zM206 98q-49 17 -82 17q-22 0 -36.5 -6.5t-18.5 -13t-4 -11.5q0 -6 3 -12t15 -12t32 -6t46.5 11t44.5 33z" />
    <glyph glyph-name="currency" unicode="&#xa4;" horiz-adv-x="667" 
d="M661 570l-75 -75q50 -72 50 -155q0 -82 -51 -156l76 -76l-61 -61l-75 77q-74 -50 -154 -50q-85 0 -156 51l-76 -76l-60 60l76 76q-51 72 -51 155q0 84 51 155l-75 75l60 60l75 -75q71 51 156 51q84 0 154 -51l76 75zM556 340q1 82 -54.5 135t-131.5 53t-131 -52.5
t-55 -135.5q0 -81 55 -134.5t133 -53.5t130.5 53.5t53.5 134.5z" />
    <glyph glyph-name="yen" unicode="&#xa5;" horiz-adv-x="583" 
d="M605 674h106l-261 -283h134l-15 -66h-181l-32 -34l-2 -9h205l-15 -64h-205l-50 -218h-87l50 218h-186l15 64h186l4 20l-4 23h-176l15 66h135l-96 283h89l99 -307z" />
    <glyph glyph-name="brokenbar" unicode="&#xa6;" horiz-adv-x="229" 
d="M117 -175v350h80v-350h-80zM197 325h-80v350h80v-350z" />
    <glyph glyph-name="section" unicode="&#xa7;" horiz-adv-x="604" 
d="M61 -60l19 82q14 -12 38.5 -29.5t82.5 -43t107 -25.5q47 0 77 24.5t30 61.5q0 31 -23.5 53.5t-76.5 44.5l-70 34q-135 61 -135 158q0 51 30 92q33 45 101 66q-50 47 -50 109q0 61 49 106t125 45q109 0 202 -63l-18 -78q-41 29 -74 44q-57 24 -105 24q-31 0 -52.5 -9.5
t-30 -24t-11.5 -25t-3 -19.5q0 -18 7.5 -32.5t22 -25t25 -15.5t27.5 -12l80 -34q36 -18 43 -21q99 -52 99 -146q0 -57 -42 -104q-28 -31 -90 -54q51 -48 51 -110q0 -70 -51 -114.5t-137 -44.5q-64 0 -134 26.5t-113 59.5zM280 214l99 -47q37 0 69 16q53 25 53 84
q0 62 -87 102l-101 46q-64 -5 -96 -32q-31 -28 -31 -67q0 -59 94 -102z" />
    <glyph glyph-name="dieresis" unicode="&#xa8;" horiz-adv-x="292" 
d="M15 653h91l-23 -101h-91zM209 653h91l-23 -101h-91z" />
    <glyph glyph-name="copyright" unicode="&#xa9;" horiz-adv-x="833" 
d="M820 351q-1 -148 -103.5 -251t-252.5 -103q-144 0 -250 101t-106 255q0 151 105 253.5t251 102.5q152 0 254.5 -105t101.5 -253zM788 351q1 135 -92 230.5t-230 95.5t-231.5 -95t-94.5 -229q0 -136 95 -230t229 -94q137 0 230 93.5t94 228.5zM605 258l56 -49
q-76 -91 -191 -91q-101 0 -168 66.5t-67 168.5t67 170t170 68q110 0 189 -90l-56 -52q-61 67 -133 67q-68 0 -113.5 -46t-45.5 -116t46.5 -115.5t113.5 -45.5q73 0 132 65z" />
    <glyph glyph-name="ordfeminine" unicode="&#xaa;" horiz-adv-x="354" 
d="M394 604l-21 -89q-6 -24 -6 -33q0 -12 11 -12q8 0 22 7l-10 -45q-22 -4 -30 -4q-36 0 -43 33q-30 -38 -92 -38q-37 0 -60 20.5t-23 53.5q0 26 12 45t32 28.5t33 13t27 5.5l95 15q5 17 5 31q0 38 -50 38q-52 0 -64 -55l-57 4q6 17 11.5 27.5t19 28t37.5 26.5t57 9
q11 0 24.5 -2.5t32 -9t30.5 -22t12 -37.5q0 -11 -5 -38zM332 561q-66 -5 -97 -18q-38 -14 -38 -46q0 -35 44 -35q46 0 69 32q12 16 22 67z" />
    <glyph glyph-name="guillemotleft" unicode="&#xab;" horiz-adv-x="396" 
d="M89 360l165 115l-22 -95l-89 -58l60 -68l-19 -79l-110 119zM261 360l164 113l-22 -94l-89 -58l61 -66l-19 -83l-111 120z" />
    <glyph glyph-name="logicalnot" unicode="&#xac;" horiz-adv-x="667" 
d="M624 0v252h-587v80h667v-332h-80z" />
    <glyph glyph-name="registered" unicode="&#xae;" horiz-adv-x="833" 
d="M313 580h146q74 0 105 -11q35 -12 53.5 -41t18.5 -63q0 -83 -92 -107q29 -13 43 -32t21 -62q8 -56 14 -80.5t20 -52.5h-91q-10 18 -18 62q-1 5 -5.5 34.5t-5.5 34.5q-8 44 -30 56.5t-71 13.5h-28v-201h-80v449zM394 518v-122h66q19 0 30 1t29 6t27.5 19t9.5 36
q0 39 -32 53q-16 7 -79 7h-51zM820 351q-1 -148 -104 -251t-253 -103q-143 0 -249 101t-106 254q0 152 104.5 254.5t250.5 102.5q153 0 255.5 -105t101.5 -253zM788 351q1 135 -92.5 230.5t-230.5 95.5t-231 -95t-94 -230t95 -229t229 -94q136 0 229.5 93.5t94.5 228.5z" />
    <glyph glyph-name="macron" unicode="&#xaf;" horiz-adv-x="292" 
d="M11 630h287l-16 -78h-287z" />
    <glyph glyph-name="degree" unicode="&#xb0;" horiz-adv-x="354" 
d="M83 595q0 67 47 114t114 47t114 -47t47 -114t-47 -114t-114 -47t-114 47t-47 114zM165 595q0 -33 23 -56t56 -23t56 23t23 56t-23 56t-56 23t-56 -23t-23 -56z" />
    <glyph glyph-name="plusminus" unicode="&#xb1;" horiz-adv-x="667" 
d="M417 377v-243h-80v243h-254v79h254v242h80v-242h251v-79h-251zM668 79v-79h-585v79h585z" />
    <glyph glyph-name="twosuperior" unicode="&#xb2;" horiz-adv-x="396" 
d="M148 273l229 4l-12 -53h-303l13 59q24 12 60 34.5t60.5 39t26.5 18.5q134 93 134 181q0 35 -21.5 51.5t-47.5 16.5q-39 0 -65 -29.5t-26 -74.5q0 -19 3 -31l-64 13q-2 52 14 89t43 53t50 22.5t45 6.5q53 0 92 -29t39 -87q0 -98 -107 -185q-78 -60 -163 -99z" />
    <glyph glyph-name="threesuperior" unicode="&#xb3;" horiz-adv-x="396" 
d="M72 359l62 7q9 -102 101 -102q48 0 73 26t25 60q0 33 -24 54q-13 11 -33.5 16.5t-36 6.5t-52.5 2l11 48q8 -1 24 -1q70 0 100 22q34 23 34 64q0 25 -17 44.5t-55 19.5q-42 0 -66.5 -28t-24.5 -71l-65 12q13 60 38 88q41 46 119 46q63 0 97.5 -32.5t34.5 -79.5
q0 -39 -26.5 -70.5t-78.5 -38.5q84 -19 84 -102q0 -62 -48 -98t-117 -36q-64 0 -105 31q-49 36 -54 112z" />
    <glyph glyph-name="acute" unicode="&#xb4;" horiz-adv-x="292" 
d="M130 683h117l-143 -150h-60z" />
    <glyph glyph-name="mu" unicode="&#xb5;" 
d="M359 0l17 74q-24 -27 -40.5 -42t-45.5 -28t-63 -13q-27 0 -45 9t-25.5 19t-17.5 31l-65 -265h-79l158 686h79l-64 -280q-8 -32 -8 -52q0 -43 26 -63.5t66 -20.5q73 0 118 62q26 37 50 147l48 207h75l-108 -471h-76z" />
    <glyph glyph-name="paragraph" unicode="&#xb6;" horiz-adv-x="667" 
d="M356 706h230v-54h-34v-818h-58v818h-145v-818h-57v485q-55 9 -89 36q-69 52 -69 151q0 94 63 149q25 23 58 35t51.5 13.5t49.5 2.5z" />
    <glyph glyph-name="periodcentered" unicode="&#xb7;" horiz-adv-x="229" 
d="M106 325h101l-26 -111h-100z" />
    <glyph glyph-name="cedilla" unicode="&#xb8;" horiz-adv-x="292" 
d="M167 18h36l-43 -59q30 -2 45 -18t15 -40q0 -36 -30 -63.5t-83 -27.5q-20 0 -35 3l7 26q60 -3 60 30q0 13 -9.5 21.5t-17.5 10.5t-25 6z" />
    <glyph glyph-name="onesuperior" unicode="&#xb9;" horiz-adv-x="396" 
d="M294 673h58l-104 -449h-58l79 339q-33 -18 -84 -18q-10 0 -34 2l12 49q11 -1 22 -1q89 0 109 78z" />
    <glyph glyph-name="ordmasculine" unicode="&#xba;" horiz-adv-x="354" 
d="M406 586q-2 -71 -44 -118.5t-106 -47.5q-57 0 -87 35.5t-30 85.5q0 76 43.5 124t109.5 48q50 0 82.5 -32.5t31.5 -94.5zM354 585q2 38 -14.5 62.5t-49.5 24.5q-42 0 -70.5 -38t-28.5 -92q0 -37 17.5 -58.5t48.5 -21.5q37 0 65 33t32 90z" />
    <glyph glyph-name="guillemotright" unicode="&#xbb;" horiz-adv-x="396" 
d="M272 394l18 78l110 -118l-15 -67l-164 -114l22 94l88 60zM99 392l19 81l111 -119l-16 -67l-164 -113l22 94l89 58z" />
    <glyph glyph-name="onequarter" unicode="&#xbc;" horiz-adv-x="917" 
d="M294 673h58l-104 -450h-58l79 340q-33 -18 -84 -18q-10 0 -34 2l12 49q11 -1 22 -1q89 0 109 78zM638 691l43 -22l-362 -698l-44 23zM823 170h60l-12 -50h-60l-27 -120h-56l28 120h-203l11 49l262 280h57zM634 170h133l51 207z" />
    <glyph glyph-name="onehalf" unicode="&#xbd;" horiz-adv-x="917" 
d="M294 673h58l-104 -450h-58l79 340q-32 -18 -84 -18q-10 0 -34 2l12 49q11 -1 22 -1q89 0 109 78zM616 691l43 -22l-362 -698l-44 23zM620 49l229 4l-12 -53h-303l14 59q23 12 59 34.5t60.5 39t26.5 18.5q134 93 134 181q0 35 -21.5 51.5t-47.5 16.5q-39 0 -65 -29.5
t-26 -74.5q0 -19 3 -31l-64 13q-2 52 14 89t43 53t50 22.5t45 6.5q53 0 92 -29t39 -87q0 -98 -107 -185q-78 -60 -163 -99z" />
    <glyph glyph-name="threequarters" unicode="&#xbe;" horiz-adv-x="917" 
d="M72 359l62 7q9 -102 101 -102q48 0 73 26t25 60q0 33 -24 54q-13 11 -33.5 16.5t-36 6.5t-52.5 2l11 48q8 -1 24 -1q70 0 100 22q34 23 34 64q0 25 -17 44.5t-55 19.5q-42 0 -66.5 -28t-24.5 -71l-65 12q13 60 38 88q41 46 119 46q63 0 97.5 -32.5t34.5 -79.5
q0 -39 -26.5 -70.5t-78.5 -38.5q84 -19 84 -102q0 -62 -48 -98t-117 -36q-64 0 -105 31q-49 36 -54 112zM682 691l43 -22l-362 -698l-44 23zM823 170h60l-11 -50h-60l-28 -120h-56l28 120h-203l11 49l262 281h58zM634 170h134l50 208z" />
    <glyph glyph-name="questiondown" unicode="&#xbf;" 
d="M303 706h93l-26 -112h-93zM270 529h79l-50 -215q-80 -3 -119 -32q-47 -37 -47 -102q0 -18 5 -35.5t17.5 -37.5t39 -32t63.5 -12q46 0 82 22q21 13 35 29.5t21 37.5t9.5 34.5t5.5 36.5l86 -14q-7 -93 -67 -154t-171 -61q-98 0 -156.5 51t-58.5 138q0 105 84 160
q43 30 108 37z" />
    <glyph glyph-name="Agrave" unicode="&#xc0;" horiz-adv-x="667" 
d="M516 0l-25 222h-268l-128 -222h-95l408 707h108l91 -707h-91zM448 649l-183 -354h218zM376 895h104l36 -125h-55z" />
    <glyph glyph-name="Aacute" unicode="&#xc1;" horiz-adv-x="667" 
d="M516 0l-25 222h-268l-128 -222h-95l408 707h108l91 -707h-91zM448 649l-183 -354h218zM504 895h126l-146 -127h-66z" />
    <glyph glyph-name="Acircumflex" unicode="&#xc2;" horiz-adv-x="667" 
d="M516 0l-25 222h-268l-128 -222h-95l408 707h108l91 -707h-91zM448 649l-183 -354h218zM538 895l57 -127h-67l-33 79l-78 -79h-80l129 127h72z" />
    <glyph glyph-name="Atilde" unicode="&#xc3;" horiz-adv-x="667" 
d="M516 0l-25 222h-268l-128 -222h-95l408 707h108l91 -707h-91zM448 649l-183 -354h218zM636 888l28 -16q-51 -95 -125 -95q-28 0 -66 13q-8 2 -22 7.5t-22 8.5q-33 11 -50 11q-27 0 -50 -41l-30 12q45 98 123 98q23 0 53 -10q73 -25 104 -25q33 0 57 37z" />
    <glyph glyph-name="Adieresis" unicode="&#xc4;" horiz-adv-x="667" 
d="M516 0l-25 222h-268l-128 -222h-95l408 707h108l91 -707h-91zM448 649l-183 -354h218zM345 880h91l-24 -103h-91zM538 880h91l-24 -103h-90z" />
    <glyph glyph-name="Aring" unicode="&#xc5;" horiz-adv-x="667" 
d="M516 0l-25 222h-268l-128 -222h-95l408 707h108l91 -707h-91zM448 649l-183 -354h218zM475 952q38 0 65 -27t27 -65t-27 -65t-65 -27t-65 27t-27 65t27 65t65 27zM475 908q-19 0 -33 -14t-14 -34t13.5 -34t33.5 -14t34 14t14 34t-14 34t-34 14z" />
    <glyph glyph-name="AE" unicode="&#xc6;" horiz-adv-x="1062" 
d="M644 329l-59 -254h423l-17 -75h-507l51 225h-240l-203 -225h-110l649 706h438l-17 -74h-346l-46 -233h347l-16 -70h-347zM631 615l-272 -320h193z" />
    <glyph glyph-name="Ccedilla" unicode="&#xc7;" horiz-adv-x="771" 
d="M671 245l89 -12q-17 -37 -30 -60t-44 -61t-70 -64q-76 -52 -190 -60l-23 -32q41 -8 58.5 -33.5t17.5 -51.5q0 -40 -32.5 -74t-95.5 -34q-14 0 -52 6l6 29q18 -1 28 -1q58 0 58 40q0 43 -75 55l72 96q-149 10 -224 92q-77 85 -77 231q0 173 104 291t279 118
q248 0 307 -215l-89 -17q-19 58 -42 87q-59 74 -176 74q-63 0 -114 -23t-82.5 -58.5t-53 -82t-30 -90.5t-8.5 -86q0 -111 55.5 -180.5t170.5 -69.5q102 0 169 56q63 55 94 130z" />
    <glyph glyph-name="Egrave" unicode="&#xc8;" horiz-adv-x="625" 
d="M162 75h420l-17 -75h-509l163 706h460l-18 -75h-370l-54 -233h339l-16 -70h-339zM355 895h104l36 -125h-55z" />
    <glyph glyph-name="Eacute" unicode="&#xc9;" horiz-adv-x="625" 
d="M162 75h420l-17 -75h-509l163 706h460l-18 -75h-370l-54 -233h339l-16 -70h-339zM483 895h126l-146 -127h-66z" />
    <glyph glyph-name="Ecircumflex" unicode="&#xca;" horiz-adv-x="625" 
d="M162 75h420l-17 -75h-509l163 706h460l-18 -75h-370l-54 -233h339l-16 -70h-339zM517 895l57 -127h-67l-33 79l-78 -79h-80l129 127h72z" />
    <glyph glyph-name="Edieresis" unicode="&#xcb;" horiz-adv-x="625" 
d="M162 75h420l-17 -75h-509l163 706h460l-18 -75h-370l-54 -233h339l-16 -70h-339zM338 880h91l-24 -103h-91zM531 880h91l-24 -103h-90z" />
    <glyph glyph-name="Igrave" unicode="&#xcc;" horiz-adv-x="271" 
d="M220 706h86l-163 -706h-86zM178 895h104l36 -125h-55z" />
    <glyph glyph-name="Iacute" unicode="&#xcd;" horiz-adv-x="271" 
d="M220 706h86l-163 -706h-86zM306 895h126l-146 -127h-66z" />
    <glyph glyph-name="Icircumflex" unicode="&#xce;" horiz-adv-x="271" 
d="M220 706h86l-163 -706h-86zM340 895l57 -127h-67l-33 79l-78 -79h-80l129 127h72z" />
    <glyph glyph-name="Idieresis" unicode="&#xcf;" horiz-adv-x="271" 
d="M220 706h86l-163 -706h-86zM161 880h91l-24 -103h-91zM354 880h91l-24 -103h-90z" />
    <glyph glyph-name="Eth" unicode="&#xd0;" horiz-adv-x="729" 
d="M292 0h-234l80 344h-80l16 67h79l68 295h195q73 0 125.5 -9.5t94.5 -39.5q96 -70 96 -225q0 -106 -40 -201t-108 -152q-44 -37 -97.5 -55.5t-89.5 -21t-105 -2.5zM226 344l-63 -272h153q44 0 67.5 2.5t57 11t60.5 28.5t54 53q39 48 61 112t25 95t3 56q0 133 -82 178
q-40 22 -137 25h-132l-52 -222h186l-16 -67h-185z" />
    <glyph glyph-name="Ntilde" unicode="&#xd1;" horiz-adv-x="729" 
d="M315 706l231 -611l133 611h84l-163 -706h-91l-234 613l-133 -613h-85l163 706h95zM668 888l28 -16q-51 -95 -125 -95q-28 0 -66 13q-8 2 -22.5 7.5t-21.5 8.5q-33 11 -50 11q-27 0 -50 -41l-30 12q45 98 123 98q23 0 53 -10q73 -25 104 -25q33 0 57 37z" />
    <glyph glyph-name="Ograve" unicode="&#xd2;" horiz-adv-x="792" 
d="M793 393q-1 -79 -28 -151.5t-75 -129.5t-122 -91t-162 -34q-148 0 -229.5 93t-81.5 228q0 76 23.5 147.5t68.5 131.5t120 96.5t170 36.5q80 0 144.5 -28.5t103.5 -78.5q70 -88 68 -220zM700 400q1 117 -60 183.5t-164 66.5q-70 0 -126 -30.5t-90 -80.5t-51.5 -109
t-17.5 -121q0 -115 62.5 -183t159.5 -68q123 0 204.5 97t82.5 245zM439 895h104l36 -125h-55z" />
    <glyph glyph-name="Oacute" unicode="&#xd3;" horiz-adv-x="792" 
d="M793 393q-1 -79 -28 -151.5t-75 -129.5t-122 -91t-162 -34q-148 0 -229.5 93t-81.5 228q0 76 23.5 147.5t68.5 131.5t120 96.5t170 36.5q80 0 144.5 -28.5t103.5 -78.5q70 -88 68 -220zM700 400q1 117 -60 183.5t-164 66.5q-70 0 -126 -30.5t-90 -80.5t-51.5 -109
t-17.5 -121q0 -115 62.5 -183t159.5 -68q123 0 204.5 97t82.5 245zM567 895h126l-146 -127h-66z" />
    <glyph glyph-name="Ocircumflex" unicode="&#xd4;" horiz-adv-x="792" 
d="M793 393q-1 -79 -28 -151.5t-75 -129.5t-122 -91t-162 -34q-148 0 -229.5 93t-81.5 228q0 76 23.5 147.5t68.5 131.5t120 96.5t170 36.5q80 0 144.5 -28.5t103.5 -78.5q70 -88 68 -220zM700 400q1 117 -60 183.5t-164 66.5q-70 0 -126 -30.5t-90 -80.5t-51.5 -109
t-17.5 -121q0 -115 62.5 -183t159.5 -68q123 0 204.5 97t82.5 245zM601 895l57 -127h-67l-33 79l-78 -79h-80l129 127h72z" />
    <glyph glyph-name="Otilde" unicode="&#xd5;" horiz-adv-x="792" 
d="M793 393q-1 -79 -28 -151.5t-75 -129.5t-122 -91t-162 -34q-148 0 -229.5 93t-81.5 228q0 76 23.5 147.5t68.5 131.5t120 96.5t170 36.5q80 0 144.5 -28.5t103.5 -78.5q70 -88 68 -220zM700 400q1 117 -60 183.5t-164 66.5q-70 0 -126 -30.5t-90 -80.5t-51.5 -109
t-17.5 -121q0 -115 62.5 -183t159.5 -68q123 0 204.5 97t82.5 245zM699 888l28 -16q-51 -95 -125 -95q-28 0 -66 13q-8 2 -22 7.5t-22 8.5q-33 11 -50 11q-27 0 -50 -41l-30 12q45 98 123 98q23 0 53 -10q73 -25 104 -25q33 0 57 37z" />
    <glyph glyph-name="Odieresis" unicode="&#xd6;" horiz-adv-x="792" 
d="M793 393q-1 -79 -28 -151.5t-75 -129.5t-122 -91t-162 -34q-148 0 -229.5 93t-81.5 228q0 76 23.5 147.5t68.5 131.5t120 96.5t170 36.5q80 0 144.5 -28.5t103.5 -78.5q70 -88 68 -220zM700 400q1 117 -60 183.5t-164 66.5q-70 0 -126 -30.5t-90 -80.5t-51.5 -109
t-17.5 -121q0 -115 62.5 -183t159.5 -68q123 0 204.5 97t82.5 245zM373 880h91l-24 -103h-91zM566 880h91l-24 -103h-90z" />
    <glyph glyph-name="multiply" unicode="&#xd7;" horiz-adv-x="667" 
d="M637 92l-56 -56l-200 200l-202 -200l-55 56l201 200l-201 201l55 56l202 -201l200 201l56 -56l-200 -201z" />
    <glyph glyph-name="Oslash" unicode="&#xd8;" horiz-adv-x="792" 
d="M773 678l-54 -61q24 -30 37 -56q35 -73 35 -162q0 -112 -46.5 -205.5t-133.5 -150t-198 -56.5t-203 62l-57 -63l-49 40l60 67q-70 78 -70 215q0 176 106 294t280 118q109 0 192 -59l54 60zM660 551l-399 -446q62 -48 146 -48q132 0 212.5 98t80.5 236q0 91 -40 160z
M220 156l398 444q-19 16 -32 24.5t-43 18t-66 9.5q-87 0 -155.5 -50.5t-103 -130t-34.5 -170.5q0 -77 36 -145z" />
    <glyph glyph-name="Ugrave" unicode="&#xd9;" horiz-adv-x="708" 
d="M665 707h88l-98 -424q-10 -50 -22 -87t-35.5 -79t-55 -68.5t-82 -44t-115.5 -17.5q-40 0 -77.5 9t-75.5 30t-61.5 64t-23.5 103q0 48 22 158l82 356h88l-84 -365q-19 -89 -19 -130q0 -49 13 -76q36 -74 141 -74q47 0 82.5 14.5t57 34.5t39.5 58t26.5 68.5t20.5 81.5z
M397 895h104l36 -125h-55z" />
    <glyph glyph-name="Uacute" unicode="&#xda;" horiz-adv-x="708" 
d="M665 707h88l-98 -424q-10 -50 -22 -87t-35.5 -79t-55 -68.5t-82 -44t-115.5 -17.5q-40 0 -77.5 9t-75.5 30t-61.5 64t-23.5 103q0 48 22 158l82 356h88l-84 -365q-19 -89 -19 -130q0 -49 13 -76q36 -74 141 -74q47 0 82.5 14.5t57 34.5t39.5 58t26.5 68.5t20.5 81.5z
M525 895h126l-146 -127h-66z" />
    <glyph glyph-name="Ucircumflex" unicode="&#xdb;" horiz-adv-x="708" 
d="M665 707h88l-98 -424q-10 -50 -22 -87t-35.5 -79t-55 -68.5t-82 -44t-115.5 -17.5q-40 0 -77.5 9t-75.5 30t-61.5 64t-23.5 103q0 48 22 158l82 356h88l-84 -365q-19 -89 -19 -130q0 -49 13 -76q36 -74 141 -74q47 0 82.5 14.5t57 34.5t39.5 58t26.5 68.5t20.5 81.5z
M559 895l57 -127h-67l-33 79l-78 -79h-80l129 127h72z" />
    <glyph glyph-name="Udieresis" unicode="&#xdc;" horiz-adv-x="708" 
d="M665 707h88l-98 -424q-10 -50 -22 -87t-35.5 -79t-55 -68.5t-82 -44t-115.5 -17.5q-40 0 -77.5 9t-75.5 30t-61.5 64t-23.5 103q0 48 22 158l82 356h88l-84 -365q-19 -89 -19 -130q0 -49 13 -76q36 -74 141 -74q47 0 82.5 14.5t57 34.5t39.5 58t26.5 68.5t20.5 81.5z
M382 880h91l-24 -103h-91zM575 880h91l-24 -103h-90z" />
    <glyph glyph-name="Yacute" unicode="&#xdd;" horiz-adv-x="583" 
d="M601 706h106l-358 -399l-71 -307h-89l73 317l-121 389h89l95 -319zM463 895h126l-146 -127h-66z" />
    <glyph glyph-name="Thorn" unicode="&#xde;" horiz-adv-x="646" 
d="M183 172l-40 -172h-88l163 706h88l-29 -129h185q81 0 132 -29q80 -46 80 -151q0 -130 -117 -190q-45 -23 -88 -29t-113 -6h-173zM259 502l-59 -256h157q78 0 111 8q59 14 89 54t30 88q0 102 -120 106h-208z" />
    <glyph glyph-name="germandbls" unicode="&#xdf;" 
d="M170 0l16 70q60 -10 75 -10q75 0 111 32q31 27 46 75t15 87q0 32 -10.5 55t-23.5 34t-36.5 18t-37 8t-37.5 2l17 75q48 -2 82.5 8t52 29.5t25 40t7.5 42.5q0 41 -25.5 62.5t-64.5 21.5q-59 0 -95 -39q-35 -38 -64 -165l-102 -446h-76l114 493q8 37 17 65.5t26 59.5
t39.5 51t58.5 33t82 13q72 0 122 -35.5t50 -107.5q0 -51 -21 -87q-13 -24 -31.5 -40t-41.5 -23t-38 -9t-38 -4q20 -4 31.5 -7t32.5 -14.5t33.5 -26.5t22.5 -43.5t10 -65.5q0 -56 -21 -117t-70 -99q-60 -45 -170 -45q-42 0 -83 9z" />
    <glyph glyph-name="agrave" unicode="&#xe0;" horiz-adv-x="500" 
d="M461 301l-43 -185q-4 -20 -4 -29q0 -25 24 -25q16 0 32 7l-15 -65q-28 -7 -47 -7q-36 0 -52.5 18t-16.5 40q0 3 0.5 7t0.5 7q-27 -42 -68 -60q-43 -19 -96 -19q-71 0 -105.5 35t-34.5 82q0 54 35 94q24 29 59 43t93 23q9 2 76 11.5t81 12.5q10 47 10 62q0 68 -93 68
q-33 0 -56 -9.5t-34.5 -26.5t-16 -29.5t-7.5 -30.5l-89 8q11 29 21.5 48.5t33.5 45.5t62.5 39.5t93.5 13.5q71 0 117 -30q48 -31 48 -85q0 -24 -9 -64zM353 174l13 57q-85 -11 -118.5 -17.5t-64.5 -20.5q-60 -26 -60 -79q0 -31 23 -48t57 -17q22 0 52.5 9.5t50.5 26.5
q33 28 47 89zM245 683h101l46 -152h-53z" />
    <glyph glyph-name="aacute" unicode="&#xe1;" horiz-adv-x="500" 
d="M461 301l-43 -185q-4 -20 -4 -29q0 -25 24 -25q16 0 32 7l-15 -65q-28 -7 -47 -7q-36 0 -52.5 18t-16.5 40q0 3 0.5 7t0.5 7q-27 -42 -68 -60q-43 -19 -96 -19q-71 0 -105.5 35t-34.5 82q0 54 35 94q24 29 59 43t93 23q9 2 76 11.5t81 12.5q10 47 10 62q0 68 -93 68
q-33 0 -56 -9.5t-34.5 -26.5t-16 -29.5t-7.5 -30.5l-89 8q11 29 21.5 48.5t33.5 45.5t62.5 39.5t93.5 13.5q71 0 117 -30q48 -31 48 -85q0 -24 -9 -64zM353 174l13 57q-85 -11 -118.5 -17.5t-64.5 -20.5q-60 -26 -60 -79q0 -31 23 -48t57 -17q22 0 52.5 9.5t50.5 26.5
q33 28 47 89zM364 683h117l-143 -150h-60z" />
    <glyph glyph-name="acircumflex" unicode="&#xe2;" horiz-adv-x="500" 
d="M461 301l-43 -185q-4 -20 -4 -29q0 -25 24 -25q16 0 32 7l-15 -65q-28 -7 -47 -7q-36 0 -52.5 18t-16.5 40q0 3 0.5 7t0.5 7q-27 -42 -68 -60q-43 -19 -96 -19q-71 0 -105.5 35t-34.5 82q0 54 35 94q24 29 59 43t93 23q9 2 76 11.5t81 12.5q10 47 10 62q0 68 -93 68
q-33 0 -56 -9.5t-34.5 -26.5t-16 -29.5t-7.5 -30.5l-89 8q11 29 21.5 48.5t33.5 45.5t62.5 39.5t93.5 13.5q71 0 117 -30q48 -31 48 -85q0 -24 -9 -64zM353 174l13 57q-85 -11 -118.5 -17.5t-64.5 -20.5q-60 -26 -60 -79q0 -31 23 -48t57 -17q22 0 52.5 9.5t50.5 26.5
q33 28 47 89zM337 683h72l69 -154h-68l-45 106l-101 -106h-82z" />
    <glyph glyph-name="atilde" unicode="&#xe3;" horiz-adv-x="500" 
d="M461 301l-43 -185q-4 -20 -4 -29q0 -25 24 -25q16 0 32 7l-15 -65q-28 -7 -47 -7q-36 0 -52.5 18t-16.5 40q0 3 0.5 7t0.5 7q-27 -42 -68 -60q-43 -19 -96 -19q-71 0 -105.5 35t-34.5 82q0 54 35 94q24 29 59 43t93 23q9 2 76 11.5t81 12.5q10 47 10 62q0 68 -93 68
q-33 0 -56 -9.5t-34.5 -26.5t-16 -29.5t-7.5 -30.5l-89 8q11 29 21.5 48.5t33.5 45.5t62.5 39.5t93.5 13.5q71 0 117 -30q48 -31 48 -85q0 -24 -9 -64zM353 174l13 57q-85 -11 -118.5 -17.5t-64.5 -20.5q-60 -26 -60 -79q0 -31 23 -48t57 -17q22 0 52.5 9.5t50.5 26.5
q33 28 47 89zM482 662l26 -16q-9 -16 -14.5 -24.5t-20.5 -27t-33 -27.5t-39 -9q-14 0 -23 3q-12 3 -76 26q-22 11 -37 11q-25 0 -48 -31l-29 8q45 87 107 87q16 0 27.5 -3.5t51.5 -20.5q32 -14 53 -14q30 0 55 38z" />
    <glyph glyph-name="adieresis" unicode="&#xe4;" horiz-adv-x="500" 
d="M461 301l-43 -185q-4 -20 -4 -29q0 -25 24 -25q16 0 32 7l-15 -65q-28 -7 -47 -7q-36 0 -52.5 18t-16.5 40q0 3 0.5 7t0.5 7q-27 -42 -68 -60q-43 -19 -96 -19q-71 0 -105.5 35t-34.5 82q0 54 35 94q24 29 59 43t93 23q9 2 76 11.5t81 12.5q10 47 10 62q0 68 -93 68
q-33 0 -56 -9.5t-34.5 -26.5t-16 -29.5t-7.5 -30.5l-89 8q11 29 21.5 48.5t33.5 45.5t62.5 39.5t93.5 13.5q71 0 117 -30q48 -31 48 -85q0 -24 -9 -64zM353 174l13 57q-85 -11 -118.5 -17.5t-64.5 -20.5q-60 -26 -60 -79q0 -31 23 -48t57 -17q22 0 52.5 9.5t50.5 26.5
q33 28 47 89zM207 653h91l-23 -101h-91zM401 653h91l-23 -101h-91z" />
    <glyph glyph-name="aring" unicode="&#xe5;" horiz-adv-x="500" 
d="M461 301l-43 -185q-4 -20 -4 -29q0 -25 24 -25q16 0 32 7l-15 -65q-28 -7 -47 -7q-36 0 -52.5 18t-16.5 40q0 3 0.5 7t0.5 7q-27 -42 -68 -60q-43 -19 -96 -19q-71 0 -105.5 35t-34.5 82q0 54 35 94q24 29 59 43t93 23q9 2 76 11.5t81 12.5q10 47 10 62q0 68 -93 68
q-33 0 -56 -9.5t-34.5 -26.5t-16 -29.5t-7.5 -30.5l-89 8q11 29 21.5 48.5t33.5 45.5t62.5 39.5t93.5 13.5q71 0 117 -30q48 -31 48 -85q0 -24 -9 -64zM353 174l13 57q-85 -11 -118.5 -17.5t-64.5 -20.5q-60 -26 -60 -79q0 -31 23 -48t57 -17q22 0 52.5 9.5t50.5 26.5
q33 28 47 89zM247 609q0 37 26.5 63.5t63.5 26.5t63.5 -26.5t26.5 -63.5t-26.5 -63.5t-63.5 -26.5t-63.5 26.5t-26.5 63.5zM289 609q0 -20 14 -34t34 -14t34 14t14 34t-14 34t-34 14t-34 -14t-14 -34z" />
    <glyph glyph-name="ae" unicode="&#xe6;" horiz-adv-x="833" 
d="M719 144l76 -10q-20 -45 -41.5 -72.5t-63.5 -47.5q-50 -25 -114 -25q-136 0 -198 102q-17 -26 -45 -49q-65 -53 -153 -53q-66 0 -106 33.5t-40 86.5q0 62 49 105q46 41 190 61l97 13q7 42 7 61q0 37 -21 56q-20 19 -61 19q-89 0 -113 -92l-86 13q54 138 198 138
q54 0 95 -22q35 -19 57 -61q25 34 58 52q53 31 119 31q93 0 141 -57q46 -51 46 -145q0 -27 -4 -55h-362q-3 -16 -3 -32q0 -66 38.5 -106t101.5 -40q33 0 59 10t42 28t22.5 29.5t14.5 28.5zM360 233q-43 -7 -64 -10.5t-55 -10.5t-51 -15t-36 -19t-27 -26t-8 -34q0 -30 23 -51
t64 -21q64 0 111 61q27 41 43 126zM454 282h279q1 11 1 20q0 59 -33 89.5t-83 30.5q-64 0 -107 -41.5t-57 -98.5z" />
    <glyph glyph-name="ccedilla" unicode="&#xe7;" horiz-adv-x="500" 
d="M406 153l82 -10q-35 -86 -107 -127q-44 -25 -104 -27l-23 -31q59 -8 59 -61q0 -30 -26.5 -59t-91.5 -29q-18 0 -29 2l7 27q60 -2 60 31q0 29 -52 36l61 85q-27 3 -39 4.5t-31 8.5t-36 20q-74 54 -74 163q0 121 72.5 209t190.5 88q84 0 131 -41t53 -102l-74 -17
q-5 18 -9.5 29t-16.5 29.5t-34 28t-54 9.5q-80 0 -129 -71t-49 -157q0 -60 31.5 -102.5t92.5 -42.5q41 0 76 23q41 27 63 84z" />
    <glyph glyph-name="egrave" unicode="&#xe8;" horiz-adv-x="521" 
d="M407 146l74 -13q-17 -43 -45.5 -73t-61 -44.5t-61.5 -20.5t-58 -6q-88 0 -140.5 53.5t-52.5 146.5q0 116 70.5 205t190.5 89q89 0 133 -52.5t44 -140.5q0 -26 -6 -62h-353q-2 -26 -2 -35q0 -42 14.5 -72.5t37 -44.5t42.5 -20t39 -6q28 0 51 10q25 9 43.5 26.5t25 29
t15.5 30.5zM156 285h266q1 8 1 21q0 55 -31.5 86t-73.5 31q-16 0 -35.5 -5.5t-44 -19t-47 -43t-35.5 -70.5zM256 683h101l46 -152h-53z" />
    <glyph glyph-name="eacute" unicode="&#xe9;" horiz-adv-x="521" 
d="M407 146l74 -13q-17 -43 -45.5 -73t-61 -44.5t-61.5 -20.5t-58 -6q-88 0 -140.5 53.5t-52.5 146.5q0 116 70.5 205t190.5 89q89 0 133 -52.5t44 -140.5q0 -26 -6 -62h-353q-2 -26 -2 -35q0 -42 14.5 -72.5t37 -44.5t42.5 -20t39 -6q28 0 51 10q25 9 43.5 26.5t25 29
t15.5 30.5zM156 285h266q1 8 1 21q0 55 -31.5 86t-73.5 31q-16 0 -35.5 -5.5t-44 -19t-47 -43t-35.5 -70.5zM375 683h117l-143 -150h-60z" />
    <glyph glyph-name="ecircumflex" unicode="&#xea;" horiz-adv-x="521" 
d="M407 146l74 -13q-17 -43 -45.5 -73t-61 -44.5t-61.5 -20.5t-58 -6q-88 0 -140.5 53.5t-52.5 146.5q0 116 70.5 205t190.5 89q89 0 133 -52.5t44 -140.5q0 -26 -6 -62h-353q-2 -26 -2 -35q0 -42 14.5 -72.5t37 -44.5t42.5 -20t39 -6q28 0 51 10q25 9 43.5 26.5t25 29
t15.5 30.5zM156 285h266q1 8 1 21q0 55 -31.5 86t-73.5 31q-16 0 -35.5 -5.5t-44 -19t-47 -43t-35.5 -70.5zM348 683h72l69 -154h-68l-45 106l-101 -106h-82z" />
    <glyph glyph-name="edieresis" unicode="&#xeb;" horiz-adv-x="521" 
d="M407 146l74 -13q-17 -43 -45.5 -73t-61 -44.5t-61.5 -20.5t-58 -6q-88 0 -140.5 53.5t-52.5 146.5q0 116 70.5 205t190.5 89q89 0 133 -52.5t44 -140.5q0 -26 -6 -62h-353q-2 -26 -2 -35q0 -42 14.5 -72.5t37 -44.5t42.5 -20t39 -6q28 0 51 10q25 9 43.5 26.5t25 29
t15.5 30.5zM156 285h266q1 8 1 21q0 55 -31.5 86t-73.5 31q-16 0 -35.5 -5.5t-44 -19t-47 -43t-35.5 -70.5zM238 653h91l-23 -101h-91zM432 653h91l-23 -101h-91z" />
    <glyph glyph-name="igrave" unicode="&#xec;" horiz-adv-x="229" 
d="M150 471h78l-109 -471h-77zM104 683h101l46 -152h-53z" />
    <glyph glyph-name="iacute" unicode="&#xed;" horiz-adv-x="229" 
d="M150 471h78l-109 -471h-77zM239 683h117l-143 -150h-60z" />
    <glyph glyph-name="icircumflex" unicode="&#xee;" horiz-adv-x="229" 
d="M150 471h78l-109 -471h-77zM202 683h72l69 -154h-68l-45 106l-101 -106h-82z" />
    <glyph glyph-name="idieresis" unicode="&#xef;" horiz-adv-x="229" 
d="M150 471h78l-109 -471h-77zM92 653h91l-23 -101h-91zM286 653h91l-23 -101h-91z" />
    <glyph glyph-name="eth" unicode="&#xf0;" 
d="M535 607l-78 -22q68 -127 68 -271q0 -132 -60 -217q-78 -108 -207 -108q-68 0 -114.5 33.5t-64.5 79t-18 96.5q0 109 74 197t188 88q75 0 111 -45q3 -3 6.5 -9t6 -9t3.5 -3t1 2q0 5 -8.5 35.5t-9.5 32.5q-11 33 -36 82l-165 -46l-16 44l155 43q-32 44 -64 80l54 31
q41 -47 71 -94l87 24zM442 291q-1 63 -33.5 97t-82.5 34q-80 0 -132 -69t-52 -163q0 -77 35.5 -109.5t82.5 -32.5q84 0 134 75.5t48 167.5z" />
    <glyph glyph-name="ntilde" unicode="&#xf1;" 
d="M150 471h79l-16 -68q76 80 161 80q54 0 95 -31.5t41 -88.5q0 -21 -11 -79l-66 -284h-78l67 290q7 29 7 55q0 31 -19 53t-62 22q-56 0 -97 -32q-29 -24 -45 -57.5t-32 -98.5l-54 -232h-79zM503 662l26 -16q-9 -16 -14.5 -24.5t-20.5 -27t-33 -27.5t-39 -9q-14 0 -23 3
q-12 3 -76 26q-22 11 -37 11q-25 0 -48 -31l-29 8q45 87 107 87q16 0 27.5 -3.5t51.5 -20.5q32 -14 53 -14q30 0 55 38z" />
    <glyph glyph-name="ograve" unicode="&#xf2;" 
d="M521 282q3 -116 -69.5 -204.5t-190.5 -88.5q-88 0 -143.5 55.5t-55.5 150.5q0 124 76 206t187 82q79 0 136 -50.5t60 -150.5zM442 291q-1 63 -33.5 97t-82.5 34q-80 0 -132 -69t-52 -163q0 -61 25 -96q33 -46 92 -46q11 0 24.5 2.5t37 11t47 31t41.5 55.5q35 65 33 143z
M266 683h101l46 -152h-53z" />
    <glyph glyph-name="oacute" unicode="&#xf3;" 
d="M521 282q3 -116 -69.5 -204.5t-190.5 -88.5q-88 0 -143.5 55.5t-55.5 150.5q0 124 76 206t187 82q79 0 136 -50.5t60 -150.5zM442 291q-1 63 -33.5 97t-82.5 34q-80 0 -132 -69t-52 -163q0 -61 25 -96q33 -46 92 -46q11 0 24.5 2.5t37 11t47 31t41.5 55.5q35 65 33 143z
M385 683h117l-143 -150h-60z" />
    <glyph glyph-name="ocircumflex" unicode="&#xf4;" 
d="M521 282q3 -116 -69.5 -204.5t-190.5 -88.5q-88 0 -143.5 55.5t-55.5 150.5q0 124 76 206t187 82q79 0 136 -50.5t60 -150.5zM442 291q-1 63 -33.5 97t-82.5 34q-80 0 -132 -69t-52 -163q0 -61 25 -96q33 -46 92 -46q11 0 24.5 2.5t37 11t47 31t41.5 55.5q35 65 33 143z
M358 683h72l69 -154h-68l-45 106l-101 -106h-82z" />
    <glyph glyph-name="otilde" unicode="&#xf5;" 
d="M521 282q3 -116 -69.5 -204.5t-190.5 -88.5q-88 0 -143.5 55.5t-55.5 150.5q0 124 76 206t187 82q79 0 136 -50.5t60 -150.5zM442 291q-1 63 -33.5 97t-82.5 34q-80 0 -132 -69t-52 -163q0 -61 25 -96q33 -46 92 -46q11 0 24.5 2.5t37 11t47 31t41.5 55.5q35 65 33 143z
M503 662l26 -16q-9 -16 -14.5 -24.5t-20.5 -27t-33 -27.5t-39 -9q-14 0 -23 3q-12 3 -76 26q-22 11 -37 11q-25 0 -48 -31l-29 8q45 87 107 87q16 0 27.5 -3.5t51.5 -20.5q32 -14 53 -14q30 0 55 38z" />
    <glyph glyph-name="odieresis" unicode="&#xf6;" 
d="M521 282q3 -116 -69.5 -204.5t-190.5 -88.5q-88 0 -143.5 55.5t-55.5 150.5q0 124 76 206t187 82q79 0 136 -50.5t60 -150.5zM442 291q-1 63 -33.5 97t-82.5 34q-80 0 -132 -69t-52 -163q0 -61 25 -96q33 -46 92 -46q11 0 24.5 2.5t37 11t47 31t41.5 55.5q35 65 33 143z
M225 653h91l-23 -101h-91zM419 653h91l-23 -101h-91z" />
    <glyph glyph-name="divide" unicode="&#xf7;" horiz-adv-x="667" 
d="M320 145q0 23 16.5 39.5t39.5 16.5t39.5 -16.5t16.5 -39.5t-16.5 -39.5t-39.5 -16.5t-39.5 16.5t-16.5 39.5zM708 330v-79h-666v79h666zM320 436q0 23 16.5 39.5t39.5 16.5t39.5 -16.5t16.5 -39.5t-16.5 -39.5t-39.5 -16.5t-39.5 16.5t-16.5 39.5z" />
    <glyph glyph-name="oslash" unicode="&#xf8;" 
d="M493 487l35 -34l-45 -45q39 -62 39 -134q0 -47 -16 -95.5t-46.5 -92t-82 -71t-115.5 -27.5q-84 0 -144 55l-50 -48l-33 33l54 54q-27 51 -27 113q0 105 59 185q36 49 91.5 76t113.5 27q63 0 123 -40zM432 357l-268 -266q39 -45 98 -45q76 0 130.5 71t54.5 169
q0 37 -15 71zM144 139l259 258q-35 25 -77 25q-60 0 -104.5 -39.5t-64 -90.5t-19.5 -100q0 -22 6 -53z" />
    <glyph glyph-name="ugrave" unicode="&#xf9;" 
d="M468 471h75l-108 -471h-76l17 74q-29 -35 -59 -53q-53 -30 -113 -30q-58 0 -94 30t-36 80q0 20 15 89l64 281h79l-64 -280q-11 -56 -11 -70q0 -18 7 -32q20 -34 76 -34q49 0 90 26q28 17 46.5 49.5t25 55t18.5 77.5zM255 683h101l46 -152h-53z" />
    <glyph glyph-name="uacute" unicode="&#xfa;" 
d="M468 471h75l-108 -471h-76l17 74q-29 -35 -59 -53q-53 -30 -113 -30q-58 0 -94 30t-36 80q0 20 15 89l64 281h79l-64 -280q-11 -56 -11 -70q0 -18 7 -32q20 -34 76 -34q49 0 90 26q28 17 46.5 49.5t25 55t18.5 77.5zM385 683h117l-143 -150h-60z" />
    <glyph glyph-name="ucircumflex" unicode="&#xfb;" 
d="M468 471h75l-108 -471h-76l17 74q-29 -35 -59 -53q-53 -30 -113 -30q-58 0 -94 30t-36 80q0 20 15 89l64 281h79l-64 -280q-11 -56 -11 -70q0 -18 7 -32q20 -34 76 -34q49 0 90 26q28 17 46.5 49.5t25 55t18.5 77.5zM358 683h72l69 -154h-68l-45 106l-101 -106h-82z" />
    <glyph glyph-name="udieresis" unicode="&#xfc;" 
d="M468 471h75l-108 -471h-76l17 74q-29 -35 -59 -53q-53 -30 -113 -30q-58 0 -94 30t-36 80q0 20 15 89l64 281h79l-64 -280q-11 -56 -11 -70q0 -18 7 -32q20 -34 76 -34q49 0 90 26q28 17 46.5 49.5t25 55t18.5 77.5zM248 653h91l-23 -101h-91zM442 653h91l-23 -101h-91z
" />
    <glyph glyph-name="yacute" unicode="&#xfd;" horiz-adv-x="458" 
d="M422 471h87l-356 -601q-21 -32 -31 -46t-28 -29.5t-39.5 -20.5t-54.5 -5q-26 0 -54 4l16 68q17 -3 37 -3q27 0 49 13q15 8 42 51l62 106l-52 463h77l37 -376zM343 683h117l-143 -150h-60z" />
    <glyph glyph-name="thorn" unicode="&#xfe;" 
d="M284 706l-68 -294q55 68 140 68q70 0 120 -46t50 -141q0 -121 -68 -211.5t-179 -90.5q-92 0 -129 67q-2 4 -10 22l-68 -295h-78l213 921h77zM448 293q-1 41 -14.5 68.5t-35 38t-35 14t-25.5 3.5q-87 0 -132 -87q-15 -30 -27 -77t-12 -86q0 -38 14 -63.5t36 -34.5
t34.5 -11.5t23.5 -2.5q78 0 126.5 73t46.5 165z" />
    <glyph glyph-name="ydieresis" unicode="&#xff;" horiz-adv-x="458" 
d="M422 471h87l-356 -601q-21 -32 -31 -46t-28 -29.5t-39.5 -20.5t-54.5 -5q-26 0 -54 4l16 68q17 -3 37 -3q27 0 49 13q15 8 42 51l62 106l-52 463h77l37 -376zM206 653h91l-23 -101h-91zM400 653h91l-23 -101h-91z" />
    <glyph glyph-name="dotlessi" unicode="&#x131;" horiz-adv-x="229" 
d="M150 471h78l-109 -471h-77z" />
    <glyph glyph-name="Lslash" unicode="&#x141;" 
d="M217 309l-54 -233h334l-17 -76h-423l47 207l-83 -77l24 104l83 75l92 397h88l-67 -291l196 180l-25 -105z" />
    <glyph glyph-name="lslash" unicode="&#x142;" horiz-adv-x="229" 
d="M207 706h77l-59 -258l74 70l-23 -102l-75 -71l-80 -345h-77l57 250l-74 -69l23 100l75 70z" />
    <glyph glyph-name="OE" unicode="&#x152;" horiz-adv-x="1104" 
d="M708 330l-52 -256h403l-17 -74h-485l21 89q-15 -18 -26.5 -29t-37.5 -30t-63.5 -29t-83.5 -10q-119 0 -196 87t-77 228q0 179 107 294t259 115q111 0 178 -63q26 -25 42 -63l23 117h419l-12 -73h-338l-48 -233h327l-16 -70h-327zM636 447q0 70 -22 113q-45 84 -158 84
q-114 0 -192 -97t-78 -243q0 -116 55.5 -177t139.5 -61q88 0 153 67q51 52 76 141t26 173z" />
    <glyph glyph-name="oe" unicode="&#x153;" horiz-adv-x="875" 
d="M764 147l75 -12q-27 -69 -84 -108t-133 -39q-71 0 -127 35q-26 17 -57 59q-87 -93 -187 -93q-82 0 -136 53.5t-54 149.5q0 47 14.5 95.5t43 93.5t79 73.5t115.5 28.5q33 0 62 -9q75 -22 108 -88q15 18 26 29t35 29.5t56.5 28.5t69.5 10q36 0 71 -12q113 -41 113 -180
q0 -35 -6 -67h-352q-2 -20 -2 -30q0 -41 14.5 -71.5t36.5 -46t43.5 -23t40.5 -7.5q24 0 46 9q55 21 89 92zM506 282h269q0 6 0.5 15.5t0.5 13.5q0 58 -34.5 84.5t-72.5 26.5q-56 0 -102.5 -43.5t-60.5 -96.5zM424 294q-1 69 -35.5 99t-76.5 30q-74 0 -122.5 -69.5
t-48.5 -158.5q0 -72 33.5 -108.5t78.5 -36.5q76 0 124.5 76t46.5 168z" />
    <glyph glyph-name="Scaron" unicode="&#x160;" horiz-adv-x="667" 
d="M61 228l94 18q-2 -38 4 -64q16 -71 68 -100t115 -29q55 0 95 15.5t59.5 39.5t28 46t8.5 42q0 46 -34 74q-18 16 -77 40l-86 34q-82 33 -124.5 71.5t-42.5 108.5q0 58 35 105t100 70q58 21 131 21q83 0 145 -28q101 -47 111 -162l-87 -21q-5 24 -9.5 39.5t-18.5 38
t-36 36.5q-42 29 -109 29q-76 0 -122.5 -34.5t-46.5 -85.5q0 -21 7 -36t27.5 -29t36.5 -21.5t54 -23.5l107 -43q130 -53 130 -170q0 -121 -109 -183q-68 -39 -173 -39q-103 0 -173 38q-14 7 -23.5 13t-27 23.5t-28.5 37t-20 54t-9 75.5zM559 895h79l-128 -127h-72l-56 127
h65l35 -79z" />
    <glyph glyph-name="scaron" unicode="&#x161;" horiz-adv-x="479" 
d="M49 162l80 13q-6 -26 -6 -41q0 -87 112 -87q59 0 89 25t30 57q0 25 -16.5 40t-55.5 29l-82 32q-46 19 -71.5 45t-25.5 67q0 55 47.5 97.5t140.5 42.5q75 0 121 -31t46 -93q0 -3 -0.5 -8.5t-0.5 -9.5l-76 -13q3 23 3 27q0 27 -24.5 48.5t-67.5 21.5q-50 0 -78 -21.5
t-28 -49.5q0 -17 11 -29.5t22.5 -18.5t37.5 -16l77 -30q27 -12 41 -19t31 -20.5t24.5 -32t7.5 -43.5q0 -54 -38 -97q-53 -59 -169 -59q-82 0 -133.5 34.5t-51.5 107.5q0 5 3 32zM366 530h-71l-69 153h67l45 -104l102 104h82z" />
    <glyph glyph-name="Ydieresis" unicode="&#x178;" horiz-adv-x="583" 
d="M601 706h106l-358 -399l-71 -307h-89l73 317l-121 389h89l95 -319zM318 880h91l-24 -103h-91zM511 880h91l-24 -103h-90z" />
    <glyph glyph-name="Zcaron" unicode="&#x17d;" horiz-adv-x="583" 
d="M627 626l-511 -549h450l-18 -77h-549l21 89l502 537h-383l18 80h489zM518 895h79l-128 -127h-72l-56 127h65l35 -79z" />
    <glyph glyph-name="zcaron" unicode="&#x17e;" horiz-adv-x="458" 
d="M479 471l-17 -74l-345 -329h299l-16 -68h-401l15 63l356 340h-266l15 68h360zM355 530h-71l-69 153h67l45 -104l102 104h82z" />
    <glyph glyph-name="florin" unicode="&#x192;" horiz-adv-x="250" 
d="M291 376h-84l-105 -452q-12 -81 -42 -115q-33 -38 -107 -38q-21 0 -52 4l15 65q25 -3 35 -3q32 0 47 15q13 13 27 69l105 455h-74l14 60h74q31 141 44 176q25 65 103 65q30 0 57 -8l-14 -60q-25 4 -34 4q-18 0 -28.5 -8.5t-15 -19.5t-9.5 -34l-27 -115h85z" />
    <glyph glyph-name="circumflex" unicode="&#x2c6;" horiz-adv-x="292" 
d="M153 683h72l69 -154h-68l-45 106l-101 -106h-82z" />
    <glyph glyph-name="caron" unicode="&#x2c7;" horiz-adv-x="292" 
d="M138 530h-71l-69 153h67l45 -104l102 104h82z" />
    <glyph glyph-name="breve" unicode="&#x2d8;" horiz-adv-x="292" 
d="M220 668h74q-52 -130 -169 -130q-60 0 -96 33t-31 97h72q-2 -14 -2 -22q0 -24 16.5 -38t41.5 -14q61 0 94 74z" />
    <glyph glyph-name="dotaccent" unicode="&#x2d9;" horiz-adv-x="292" 
d="M112 654h91l-24 -103h-91z" />
    <glyph glyph-name="ring" unicode="&#x2da;" horiz-adv-x="292" 
d="M56 610q0 38 26 64t64 26t64 -26t26 -64t-26 -64t-64 -26t-64 26t-26 64zM98 610q0 -20 14 -34t34 -14t34 14t14 34t-14 34t-34 14t-34 -14t-14 -34z" />
    <glyph glyph-name="ogonek" unicode="&#x2db;" horiz-adv-x="292" 
d="M149 8h79q-45 -39 -63.5 -59t-18.5 -37q0 -24 32 -24q4 0 9.5 0.5t14.5 1t19 0.5l-17 -74q-49 -5 -54 -5q-38 0 -62 18.5t-24 53.5q0 65 85 125z" />
    <glyph glyph-name="tilde" unicode="&#x2dc;" horiz-adv-x="292" 
d="M280 662l26 -16q-9 -16 -14.5 -24.5t-20.5 -27t-33 -27.5t-39 -9q-14 0 -23 3q-12 3 -76 26q-22 11 -37 11q-25 0 -48 -31l-29 8q45 87 107 87q16 0 27.5 -3.5t51.5 -20.5q32 -14 53 -14q30 0 55 38z" />
    <glyph glyph-name="hungarumlaut" unicode="&#x2dd;" horiz-adv-x="292" 
d="M53 683h118l-143 -150h-60zM209 683h116l-143 -150h-59z" />
    <glyph glyph-name="endash" unicode="&#x2013;" horiz-adv-x="583" 
d="M103 360h476l-18 -74h-475z" />
    <glyph glyph-name="emdash" unicode="&#x2014;" horiz-adv-x="646" 
d="M104 361h536l-17 -74h-537z" />
    <glyph glyph-name="quoteleft" unicode="&#x2018;" horiz-adv-x="229" 
d="M231 442h-97q11 74 29.5 130.5t63.5 133.5h50q-32 -57 -44 -87t-18 -67h37z" />
    <glyph glyph-name="quoteright" unicode="&#x2019;" horiz-adv-x="229" 
d="M196 706h99q-13 -81 -36 -140.5t-63 -125.5h-51q50 87 63 154h-38z" />
    <glyph glyph-name="quotesinglbase" unicode="&#x201a;" horiz-adv-x="229" 
d="M57 110h95q-20 -156 -95 -264h-49q48 81 64 154h-40z" />
    <glyph glyph-name="quotedblleft" unicode="&#x201c;" horiz-adv-x="354" 
d="M215 443h-94q15 129 93 263h47q-43 -82 -60 -153h40zM368 443h-97q18 127 97 263h48q-43 -66 -64 -153h42z" />
    <glyph glyph-name="quotedblright" unicode="&#x201d;" horiz-adv-x="354" 
d="M177 706h97q-10 -66 -26 -116.5t-65 -145.5h-45q33 70 41.5 92.5t16.5 61.5h-44zM336 706h99q-20 -127 -98 -262h-45q42 85 61 154h-42z" />
    <glyph glyph-name="quotedblbase" unicode="&#x201e;" horiz-adv-x="354" 
d="M45 110h96q-11 -70 -29 -123t-65 -139h-48q28 51 38.5 76t23.5 76h-42zM198 110h94q-19 -131 -92 -262h-47q32 66 42 90.5t18 61.5h-41z" />
    <glyph glyph-name="dagger" unicode="&#x2020;" horiz-adv-x="479" 
d="M367 528h175l-17 -74h-176l-107 -454h-78l109 454h-180l17 74h180l39 178h79z" />
    <glyph glyph-name="daggerdbl" unicode="&#x2021;" horiz-adv-x="458" 
d="M287 247h146l-15 -64h-145l-42 -183h-74l40 181h-145l16 66h146l57 235h-150l16 64h151l37 160h71l-36 -160h147l-15 -64h-147z" />
    <glyph glyph-name="bullet" unicode="&#x2022;" horiz-adv-x="333" 
d="M84 353q0 54 38 92t92 38t92 -38t38 -92t-38 -92t-92 -38t-92 38t-38 92z" />
    <glyph glyph-name="ellipsis" unicode="&#x2026;" horiz-adv-x="1000" 
d="M765 110h100l-22 -110h-101zM431 110h100l-22 -110h-101zM97 110h100l-22 -110h-101z" />
    <glyph glyph-name="perthousand" unicode="&#x2030;" horiz-adv-x="1312" 
d="M658 691l42 -22l-361 -698l-45 23zM908 265q-3 -106 -59.5 -189.5t-146.5 -83.5q-64 0 -101 45q-38 44 -38 127q0 69 22.5 132.5t70.5 108t112 44.5q45 0 75.5 -20.5t43.5 -53t17 -59t4 -51.5zM848 266q0 52 -6 74t-17.5 36t-24.5 19t-19.5 6.5t-12.5 1.5
q-62 0 -103.5 -77t-41.5 -173q0 -51 19 -80q23 -36 62 -36q47 0 86 50q27 35 41.5 88.5t16.5 90.5zM435 489q-3 -106 -59.5 -189.5t-145.5 -83.5q-65 0 -101 45q-38 44 -38 127q0 109 55.5 197t148.5 88q45 0 75.5 -20.5t43.5 -53t17 -59t4 -51.5zM375 490q0 52 -6 74
q-5 18 -14 31t-17.5 18.5t-19 9t-14.5 4t-8 0.5q-62 0 -103.5 -77t-41.5 -173q0 -51 19 -80q23 -36 62 -36q48 0 85 50q27 35 41.5 88.5t16.5 90.5zM1303 265q-2 -67 -26 -128.5t-71.5 -103t-107.5 -41.5q-64 0 -101 45q-38 44 -38 127q0 109 55.5 197t148.5 88
q45 0 75.5 -20.5t43.5 -53t17 -59t4 -51.5zM1243 266q0 52 -6 74q-5 18 -14 31t-17.5 18.5t-19 9t-14.5 4t-8 0.5q-62 0 -103.5 -77t-41.5 -173q0 -51 19 -80q23 -36 62 -36q48 0 85 50q27 35 41.5 88.5t16.5 90.5z" />
    <glyph glyph-name="guilsinglleft" unicode="&#x2039;" horiz-adv-x="229" 
d="M89 360l165 115l-23 -96l-88 -58l60 -66l-19 -80l-110 119z" />
    <glyph glyph-name="guilsinglright" unicode="&#x203a;" horiz-adv-x="229" 
d="M106 393l18 80l111 -118l-16 -68l-164 -114l22 94l89 60z" />
    <glyph glyph-name="fraction" unicode="&#x2044;" horiz-adv-x="125" 
d="M295 716l-385 -740l-33 17l386 740z" />
    <glyph glyph-name="trademark" unicode="&#x2122;" horiz-adv-x="687" 
d="M703 706v-332h-57l2 206q0 25 3 67l-16 -56l-68 -217h-51l-69 217l-16 55q1 -10 1.5 -22.5t1.5 -25.5t1 -18l2 -206h-56v332h79l83 -262l81 262h79zM248 657v-283h-58v283h-107v49h270v-49h-105z" />
    <glyph glyph-name="minus" unicode="&#x2212;" horiz-adv-x="667" 
d="M704 332v-79h-667v79h667z" />
    <glyph glyph-name="fi" unicode="&#xfb01;" horiz-adv-x="500" 
d="M310 411h-85l-94 -411h-77l95 411h-75l14 60h75l28 124q14 49 16 53q13 34 41 51t59 17q27 0 59 -11l-14 -60q-28 4 -37 4q-20 0 -30 -12.5t-19 -49.5l-27 -116h84zM420 471h80l-108 -471h-80zM556 706l-21 -90h-82l21 90h82z" />
    <glyph glyph-name="fl" unicode="&#xfb02;" horiz-adv-x="500" 
d="M310 411h-85l-94 -411h-77l95 411h-75l14 60h75l28 124q14 49 16 53q13 34 41 51t59 17q27 0 59 -11l-14 -60q-28 4 -37 4q-20 0 -30 -12.5t-19 -49.5l-27 -116h84zM475 707h78l-163 -707h-78z" />
    </font>
</defs>
</svg>
